<svg width="1010" height="1024" viewBox="0 0 1010 1024" fill="none" xmlns="http://www.w3.org/2000/svg">
<g filter="url(#filter0_b_1_606)">
<rect x="0.643555" width="1008.84" height="1024" fill="#17A2B8"/>
</g>
<circle opacity="0.6" cx="514.022" cy="414.148" r="152.291" fill="#317F8B"/>
<path d="M565.658 581.738H485.137C471.327 581.738 460.029 570.484 460.029 556.73V485.871C460.029 472.116 471.327 460.863 485.137 460.863H565.659C579.469 460.863 590.767 472.116 590.767 485.871V556.73C590.767 570.483 579.468 581.738 565.658 581.738Z" fill="white"/>
<path d="M565.658 460.862C579.468 460.862 590.767 472.115 590.767 485.87V556.729C590.767 570.483 579.468 581.737 565.658 581.737H485.138C471.328 581.737 460.029 570.483 460.029 556.729V485.87C460.029 472.115 471.328 460.862 485.138 460.862H565.658ZM565.658 456.909H485.138C481.227 456.909 477.425 457.679 473.837 459.197C470.379 460.661 467.271 462.751 464.599 465.413C461.927 468.074 459.827 471.171 458.358 474.614C456.834 478.188 456.061 481.975 456.061 485.87V556.729C456.061 560.624 456.834 564.411 458.358 567.984C459.827 571.429 461.926 574.524 464.599 577.185C467.271 579.846 470.38 581.938 473.837 583.402C477.425 584.919 481.227 585.69 485.138 585.69H565.659C569.57 585.69 573.372 584.919 576.96 583.402C580.418 581.938 583.526 579.847 586.198 577.185C588.869 574.524 590.97 571.428 592.439 567.984C593.963 564.411 594.736 560.624 594.736 556.729V485.87C594.736 481.975 593.963 478.188 592.439 474.614C590.97 471.17 588.871 468.074 586.198 465.413C583.526 462.752 580.417 460.661 576.96 459.197C573.372 457.679 569.569 456.909 565.658 456.909Z" fill="#317F8B"/>
<path d="M588.966 537.923C576.429 539.387 563.933 539.747 563.933 539.747C563.933 539.747 557.57 508.142 555.805 483.358C554.506 464.995 555.728 450.382 563.933 455.148C567.708 457.341 572.056 461.472 576.589 466.711C593.592 486.368 613.128 521.666 614.199 528.99C614.891 533.701 601.911 536.403 588.966 537.923Z" fill="white"/>
<path d="M562.255 541.852L561.913 540.152C561.874 539.958 557.982 520.538 555.464 500.43C553.978 488.575 553.253 478.786 553.305 471.338C553.376 461.164 554.859 455.394 557.972 453.179C559.339 452.207 561.663 451.453 564.974 453.376C575.889 459.719 589.743 479.924 597.029 491.403C601.889 499.06 606.542 507.109 610.131 514.066C612.659 518.968 615.772 525.485 616.243 528.693C616.38 529.625 616.288 531.038 615.075 532.477C613.32 534.557 609.677 536.186 603.607 537.6C599.156 538.637 593.438 539.529 586.61 540.252C575.049 541.475 564.103 541.799 563.994 541.802L562.255 541.852ZM561.092 456.293C560.694 456.293 560.485 456.442 560.37 456.523C559.024 457.48 554.99 463.437 559.555 499.9C561.623 516.415 564.625 532.469 565.623 537.63C569.142 537.489 577.495 537.084 586.197 536.162C606.399 534.022 610.912 531.023 611.915 529.834C612.193 529.505 612.171 529.353 612.16 529.287C611.574 525.295 603.953 510.001 593.542 493.598C581.485 474.603 570.316 461.235 562.896 456.925C562.054 456.436 561.482 456.293 561.092 456.293Z" fill="#317F8B"/>
<path d="M500.141 453.983L497.603 473.101L496.16 483.97L493.081 507.177C493.081 507.177 487.455 510.989 478.095 514.009C474.598 515.14 470.571 516.15 466.126 516.813C458.859 517.902 450.458 518.041 441.356 516.186C417.938 511.409 403.884 494.084 397.8 485.373C386.04 468.56 384.23 464.014 387.499 456.936C389.995 451.511 394.271 450.521 394.271 450.521C394.271 450.521 394.06 446.186 397.505 444.645C407.829 440.027 421.129 452.36 421.129 452.36C421.129 452.36 421.625 439.097 428.751 442.159C433.661 444.27 434.775 458.709 434.775 458.709C434.775 458.709 441.365 467.143 451.835 468.263C457.306 468.848 464.877 467.267 472.396 464.971C472.483 464.945 472.572 464.92 472.659 464.888C476.667 463.656 480.648 462.227 484.293 460.814C485.928 460.183 487.496 459.551 488.965 458.945C495.535 456.232 500.141 453.983 500.141 453.983Z" fill="white"/>
<path opacity="0.35" d="M397.796 485.373C403.887 494.082 417.938 511.41 441.354 516.186C456.021 519.175 468.874 516.979 478.097 514.006C487.456 510.989 493.081 507.175 493.081 507.175L493.494 488.862C493.494 488.862 487.117 482.74 481.177 485.236C474.04 488.235 476.328 498.428 466.135 501.263C437.799 509.144 414.78 494.745 407.374 488.424C397.098 479.655 394.417 474.132 392.972 471.853C389.979 467.138 387.668 463.432 386.365 460.114C385.037 465.727 387.872 471.179 397.796 485.373Z" fill="#317F8B"/>
<path d="M455.485 519.664C450.595 519.664 445.726 519.175 440.941 518.198C430.415 516.051 420.594 511.217 411.753 503.828C406.063 499.074 400.798 493.258 396.106 486.548C390.379 478.356 386.739 472.729 385.079 468.21C383.488 463.878 383.646 460.364 385.621 456.076C387.566 451.855 390.506 449.913 392.283 449.081C392.573 446.91 393.704 444.095 396.659 442.773C405.054 439.017 414.743 444.83 419.538 448.408C419.585 448.165 419.637 447.916 419.692 447.665C420.487 444.114 421.859 441.704 423.77 440.503C424.944 439.766 426.902 439.128 429.572 440.276C432.281 441.442 434.258 444.874 435.616 450.768C436.311 453.788 436.646 456.623 436.772 457.879C438.23 459.523 443.929 465.351 452.057 466.22C466.894 467.803 498.91 452.294 499.232 452.137C499.914 451.804 500.726 451.872 501.343 452.314C501.96 452.756 502.283 453.501 502.184 454.251L495.129 507.444C495.052 508.024 494.731 508.544 494.245 508.872C494.009 509.033 488.35 512.831 478.942 515.893C473.431 517.686 467.762 518.854 462.092 519.366C459.889 519.564 457.685 519.664 455.485 519.664ZM394.748 452.517C394.482 452.589 391.333 453.528 389.37 457.789C386.727 463.526 387.377 466.87 399.49 484.198C410.879 500.489 425.498 510.853 441.768 514.172C456.591 517.195 469.467 514.652 477.659 511.986C484.603 509.726 489.391 507.03 491.163 505.954L497.599 457.435C494.237 458.964 488.737 461.366 482.565 463.67C468.827 468.798 458.413 471.03 451.617 470.305C440.406 469.109 433.439 460.344 433.147 459.972C432.899 459.653 432.749 459.269 432.719 458.867C432.717 458.833 432.437 455.326 431.584 451.642C430.147 445.432 428.428 444.258 427.936 444.047C426.705 443.517 426.173 443.851 425.972 443.976C424.238 445.062 423.299 449.578 423.186 452.436C423.154 453.238 422.655 453.95 421.91 454.256C421.164 454.562 420.309 454.408 419.718 453.861C419.596 453.748 407.296 442.517 398.348 446.521C396.287 447.443 396.324 450.226 396.33 450.426C396.391 451.44 395.745 452.306 394.748 452.517Z" fill="#317F8B"/>
<path d="M422.826 452.357C422.874 452.934 422.787 453.46 422.672 453.915C422.614 454.15 422.542 454.353 422.47 454.562C422.396 454.757 422.316 454.956 422.236 455.133C421.911 455.863 421.559 456.467 421.225 457.053C420.889 457.636 420.566 458.191 420.266 458.746L420.046 459.164C419.976 459.304 419.903 459.443 419.836 459.584L419.641 460.009L419.455 460.438L419.286 460.874L419.129 461.317C419.076 461.465 419.036 461.616 418.989 461.766C418.939 461.916 418.901 462.07 418.861 462.223C418.704 462.837 418.569 463.469 418.491 464.121C418.406 464.772 418.351 465.439 418.336 466.118C418.319 466.459 418.325 466.8 418.322 467.148C418.316 467.322 418.331 467.493 418.332 467.668C418.336 467.844 418.341 468.019 418.34 468.196V468.208C418.34 468.345 418.229 468.456 418.091 468.456C417.994 468.456 417.912 468.401 417.871 468.321C417.54 467.682 417.24 467.018 417.009 466.324C416.765 465.633 416.591 464.913 416.462 464.175C416.211 462.7 416.216 461.139 416.493 459.615L416.608 459.046C416.652 458.858 416.701 458.672 416.747 458.483C416.797 458.297 416.852 458.114 416.905 457.927C416.959 457.743 417.024 457.564 417.084 457.382C417.332 456.659 417.639 455.972 417.956 455.329C418.271 454.686 418.607 454.08 418.879 453.553C419.166 453.02 419.328 452.588 419.423 452.354L419.623 451.865C419.97 451.017 420.941 450.609 421.793 450.955C422.395 451.201 422.775 451.755 422.826 452.357Z" fill="#317F8B"/>
<path d="M439.088 517.597C438.568 517.597 438.066 517.31 437.818 516.814C437.469 516.116 437.755 515.269 438.456 514.922C444.174 512.088 448.082 503.245 449.753 489.347C451.049 478.577 450.51 468.561 450.505 468.461C450.462 467.683 451.059 467.017 451.841 466.973C452.618 466.929 453.291 467.525 453.335 468.303C453.341 468.405 453.893 478.635 452.572 489.646C451.791 496.161 450.515 501.689 448.78 506.077C446.535 511.756 443.486 515.582 439.719 517.449C439.516 517.55 439.3 517.597 439.088 517.597Z" fill="#317F8B"/>
<g opacity="0.35">
<g opacity="0.35">
<g opacity="0.35">
<g opacity="0.35">
<path opacity="0.35" d="M622.023 608.468V608.18C619.756 608.277 622.023 608.468 622.023 608.468Z" fill="#317F8B"/>
</g>
</g>
</g>
</g>
<path d="M593.413 573.786H457.239C457.239 573.786 458.069 550.379 466.125 516.812C469.353 503.35 473.747 488.253 479.714 472.376C481.147 468.564 482.674 464.707 484.294 460.813C488.821 449.949 494.102 438.824 500.26 427.698H550.393C555.483 436.897 559.974 446.091 563.935 455.147C566.498 461.003 568.839 466.797 570.974 472.488C580.293 497.297 585.765 520.196 588.968 537.922C592.917 559.789 593.413 573.786 593.413 573.786Z" fill="white"/>
<path d="M574.718 489.945C577.35 492.871 578.553 496.277 579.664 499.698C580.222 501.409 580.772 503.124 581.297 504.846C581.56 505.707 581.83 506.566 582.065 507.435C582.307 508.301 582.541 509.17 582.777 510.039L583.467 512.649C583.693 513.52 583.922 514.389 584.136 515.265L585.389 520.516C585.593 521.393 585.816 522.264 586.016 523.141L586.613 525.773L587.227 528.401C587.433 529.276 587.646 530.15 587.839 531.029L589.021 536.295C589.223 537.172 589.398 538.055 589.585 538.935L590.139 541.576L590.415 542.897L590.554 543.557L590.683 544.219L591.201 546.868C591.373 547.751 591.551 548.633 591.739 549.513C591.918 550.395 592.098 551.277 592.286 552.158C593.075 555.673 593.651 559.234 593.891 562.842C593.921 563.292 593.956 563.742 593.978 564.195L594.036 565.551C594.065 566.457 594.09 567.362 594.077 568.273C594.071 569.182 594.051 570.092 593.992 571.006C593.938 571.92 593.862 572.834 593.724 573.754C593.698 573.931 593.531 574.053 593.353 574.027C593.232 574.009 593.137 573.927 593.096 573.821L593.095 573.816C592.444 572.094 591.912 570.364 591.41 568.633C591.162 567.768 590.924 566.901 590.694 566.035L590.363 564.732C590.259 564.298 590.151 563.864 590.042 563.429C589.62 561.691 589.248 559.948 588.914 558.198C588.753 557.321 588.607 556.443 588.473 555.562C588.329 554.682 588.196 553.801 588.059 552.92C587.925 552.038 587.785 551.158 587.642 550.278C587.49 549.4 587.321 548.524 587.15 547.649L586.636 545.023L586.508 544.367L586.371 543.712L586.096 542.403L585.547 539.784C585.361 538.912 585.188 538.037 584.987 537.167L583.815 531.945C583.626 531.073 583.406 530.208 583.199 529.34L582.558 526.742L581.902 524.147C581.795 523.715 581.674 523.285 581.558 522.854L581.205 521.563L579.789 516.402C579.299 514.686 578.798 512.974 578.321 511.255C578.083 510.396 577.845 509.536 577.613 508.675L577.441 508.029L577.258 507.385L576.899 506.096C576.419 504.378 575.964 502.653 575.517 500.925L575.188 499.626C575.078 499.193 574.956 498.764 574.841 498.333C574.611 497.47 574.418 496.596 574.273 495.707C574.129 494.817 574.028 493.913 573.989 492.99C573.969 492.528 573.967 492.06 573.984 491.586C574.002 491.111 574.032 490.631 574.116 490.136L574.12 490.116C574.151 489.929 574.329 489.802 574.518 489.834C574.598 489.849 574.668 489.889 574.718 489.945Z" fill="#317F8B"/>
<path d="M456.92 573.775C456.71 573.31 456.566 572.848 456.431 572.384C456.296 571.919 456.195 571.459 456.106 570.996C455.924 570.07 455.827 569.149 455.772 568.231C455.747 567.772 455.73 567.313 455.731 566.856C455.733 566.398 455.751 565.943 455.772 565.488L455.849 564.123C455.873 563.667 455.902 563.212 455.939 562.758C456.081 560.942 456.219 559.124 456.432 557.317C456.529 556.411 456.636 555.507 456.743 554.603C456.795 554.151 456.865 553.702 456.927 553.25L457.118 551.898L457.519 549.198C457.659 548.299 457.822 547.404 457.976 546.507C458.289 544.715 458.583 542.92 458.941 541.137C459.287 539.351 459.605 537.561 459.96 535.779C460.321 533.998 460.672 532.215 461.019 530.43C461.107 529.984 461.187 529.537 461.283 529.093L461.569 527.76L462.139 525.095L462.71 522.43C462.758 522.207 462.803 521.985 462.854 521.763L463.01 521.1L463.323 519.773L464.574 514.466C464.675 514.024 464.788 513.583 464.9 513.143C465.009 512.701 465.12 512.261 465.225 511.819C465.436 510.935 465.644 510.05 465.845 509.164C466.05 508.278 466.251 507.391 466.463 506.506C466.667 505.62 466.923 504.748 467.18 503.875C467.442 503.004 467.719 502.138 468.011 501.275C468.303 500.413 468.614 499.556 468.928 498.701L469.413 497.423C469.495 497.21 469.586 497 469.674 496.789C469.764 496.579 469.85 496.368 469.943 496.158C470.309 495.318 470.68 494.483 471.075 493.655C471.465 492.825 471.872 492.001 472.299 491.186C472.727 490.371 473.17 489.561 473.662 488.768C473.756 488.615 473.957 488.568 474.11 488.663C474.215 488.727 474.27 488.841 474.264 488.957V488.961C474.06 492.688 473.36 496.234 472.668 499.78C472.49 500.664 472.308 501.547 472.109 502.426C471.908 503.303 471.693 504.176 471.464 505.045C470.985 506.777 470.504 508.509 470.003 510.237C469.753 511.101 469.509 511.966 469.267 512.832C469.145 513.265 469.03 513.699 468.913 514.133C468.799 514.568 468.681 515.002 468.583 515.441L467.346 520.692L467.037 522.004L466.883 522.66C466.832 522.879 466.787 523.099 466.74 523.319L466.175 525.956L465.61 528.593L465.328 529.912C465.234 530.351 465.154 530.794 465.067 531.234C463.618 538.281 462.644 545.412 461.697 552.528L461.33 555.196C461.215 556.086 461.101 556.976 460.976 557.865L460.246 563.199C460.113 564.088 460.006 564.976 459.886 565.865C459.824 566.309 459.758 566.754 459.675 567.197C459.594 567.639 459.513 568.082 459.413 568.524C459.215 569.407 458.969 570.288 458.677 571.167C458.532 571.606 458.359 572.046 458.181 572.485C457.998 572.923 457.8 573.363 457.555 573.8L457.553 573.805C457.457 573.974 457.243 574.035 457.073 573.94C457.001 573.9 456.95 573.841 456.92 573.775Z" fill="#317F8B"/>
<path d="M496.459 544.254C488.693 547.386 476.673 546.731 468.48 545.743C463.565 545.151 460.115 540.633 460.839 535.756C461.5 531.305 465.434 528.068 469.946 528.278C477.61 528.636 489.107 528.803 496.388 527.195" fill="white"/>
<g opacity="0.35">
<g opacity="0.35">
<g opacity="0.35">
<g opacity="0.35">
<path opacity="0.35" d="M496.462 544.253C488.693 547.389 476.673 546.727 468.48 545.746C463.565 545.153 460.116 540.633 460.84 535.759C460.984 534.764 461.298 533.83 461.744 532.977C463.038 535.438 465.488 537.252 468.48 537.613C476.659 538.601 488.658 539.256 496.428 536.14L496.462 544.253Z" fill="#317F8B"/>
</g>
</g>
</g>
</g>
<path d="M481.018 548.614C476.525 548.614 472.057 548.244 468.231 547.784C465.301 547.43 462.701 545.948 460.909 543.61C459.114 541.268 458.365 538.372 458.798 535.456C459.193 532.799 460.556 530.394 462.635 528.685C464.717 526.974 467.348 526.101 470.042 526.228C481.333 526.754 490.53 526.386 495.94 525.191C497.026 524.952 499.725 524.943 501.318 530.044C502.936 535.227 502.757 543.933 497.234 546.161C492.679 547.996 486.828 548.614 481.018 548.614ZM469.527 530.323C466.2 530.323 463.372 532.737 462.88 536.056C462.611 537.865 463.076 539.663 464.19 541.117C465.3 542.566 466.911 543.484 468.728 543.703C480.445 545.115 490.02 544.635 495.686 542.35C497.369 541.671 497.852 538.955 497.982 537.819C498.436 533.843 497.221 530.171 496.46 529.282C489.076 530.828 477.949 530.709 469.85 530.331C469.742 530.325 469.634 530.323 469.527 530.323Z" fill="#317F8B"/>
<path d="M555.865 544.254C563.631 547.386 575.651 546.731 583.844 545.743C588.759 545.151 592.209 540.633 591.485 535.756C590.824 531.305 586.89 528.068 582.378 528.278C574.714 528.636 563.217 528.803 555.936 527.195" fill="white"/>
<g opacity="0.35">
<g opacity="0.35">
<g opacity="0.35">
<g opacity="0.35">
<path opacity="0.35" d="M583.842 545.746C575.648 546.728 563.63 547.39 555.86 544.253L555.894 536.065C563.662 539.181 575.662 538.526 583.842 537.538C586.819 537.183 589.256 535.383 590.557 532.935C591.015 533.795 591.337 534.742 591.488 535.758C592.207 540.633 588.757 545.153 583.842 545.746Z" fill="#317F8B"/>
</g>
</g>
</g>
</g>
<path d="M571.306 548.614C565.496 548.614 559.647 547.996 555.09 546.16C549.567 543.932 549.388 535.226 551.006 530.043C552.598 524.943 555.298 524.951 556.384 525.19C561.795 526.386 570.993 526.754 582.282 526.227C584.978 526.101 587.607 526.975 589.689 528.684C591.768 530.393 593.131 532.798 593.526 535.455C593.959 538.371 593.209 541.267 591.415 543.609C589.623 545.947 587.023 547.429 584.093 547.783C580.267 548.243 575.798 548.614 571.306 548.614ZM555.865 529.282C555.104 530.171 553.89 533.844 554.343 537.819C554.472 538.955 554.955 541.671 556.639 542.35C562.306 544.635 571.88 545.116 583.597 543.703C585.413 543.484 587.025 542.566 588.135 541.117C589.249 539.663 589.714 537.866 589.445 536.056C588.937 532.631 585.941 530.171 582.476 530.331C574.375 530.709 563.249 530.827 555.865 529.282Z" fill="#317F8B"/>
<path d="M558.866 521.558V548.896C558.866 553.968 554.698 558.12 549.606 558.12H499.056C493.971 558.12 489.802 553.968 489.802 548.896V521.558C489.802 516.486 493.971 512.341 499.056 512.341H549.606C552.604 512.341 555.28 513.78 556.977 515.994C558.161 517.542 558.866 519.472 558.866 521.558Z" fill="white"/>
<g opacity="0.35">
<g opacity="0.35">
<g opacity="0.35">
<g opacity="0.35">
<path opacity="0.35" d="M558.865 521.558V548.896C558.865 553.968 554.699 558.118 549.606 558.118H499.058C493.965 558.118 489.799 553.968 489.799 548.896V538.67C497.391 546.38 512.321 551.219 526.015 551.292C530.414 551.315 533.964 547.849 534.278 543.477C534.281 543.433 534.284 543.389 534.288 543.346C534.625 539.511 537.796 536.405 541.652 536.128C546.042 535.813 549.749 539.043 550.183 543.241C556.811 535.091 554.87 520.926 556.978 515.994C558.163 517.544 558.865 519.471 558.865 521.558Z" fill="#317F8B"/>
</g>
</g>
</g>
</g>
<path d="M549.607 560.173H499.057C492.816 560.173 487.738 555.116 487.738 548.899V521.558C487.738 515.342 492.816 510.284 499.057 510.284H549.607C555.848 510.284 560.926 515.342 560.926 521.558V548.899C560.926 555.116 555.848 560.173 549.607 560.173ZM499.057 514.393C495.09 514.393 491.863 517.607 491.863 521.558V548.899C491.863 552.85 495.09 556.064 499.057 556.064H549.607C553.574 556.064 556.801 552.85 556.801 548.899V521.558C556.801 517.607 553.574 514.393 549.607 514.393H499.057Z" fill="#317F8B"/>
<path d="M542.24 543.179C546.649 543.179 550.223 539.619 550.223 535.228C550.223 530.837 546.649 527.277 542.24 527.277C537.831 527.277 534.257 530.837 534.257 535.228C534.257 539.619 537.831 543.179 542.24 543.179Z" fill="#22A7F0"/>
<g opacity="0.7">
<g opacity="0.7">
<g opacity="0.7">
<g opacity="0.7">
<path opacity="0.7" d="M550.223 535.228C550.223 535.772 550.171 536.301 550.067 536.817C549.33 533.182 546.105 530.446 542.242 530.446C538.373 530.446 535.148 533.182 534.411 536.817C534.308 536.301 534.256 535.774 534.256 535.228C534.256 530.835 537.831 527.279 542.242 527.279C546.646 527.279 550.223 530.835 550.223 535.228Z" fill="white"/>
</g>
</g>
</g>
</g>
<g opacity="0.35">
<g opacity="0.35">
<g opacity="0.35">
<g opacity="0.35">
<path opacity="0.35" d="M550.221 535.227C550.221 539.617 546.648 543.176 542.24 543.176C537.833 543.176 534.26 539.617 534.26 535.227C534.26 534.212 534.451 533.243 534.807 532.35C535.957 535.316 538.853 537.416 542.241 537.416C545.63 537.416 548.525 535.316 549.676 532.35C550.029 533.243 550.221 534.211 550.221 535.227Z" fill="#317F8B"/>
</g>
</g>
</g>
</g>
<path d="M542.24 544.719C536.986 544.719 532.711 540.462 532.711 535.228C532.711 529.994 536.986 525.737 542.24 525.737C547.495 525.737 551.77 529.994 551.77 535.228C551.77 540.462 547.495 544.719 542.24 544.719ZM542.24 528.819C538.692 528.819 535.805 531.694 535.805 535.228C535.805 538.762 538.692 541.637 542.24 541.637C545.789 541.637 548.675 538.762 548.675 535.228C548.675 531.694 545.789 528.819 542.24 528.819Z" fill="#317F8B"/>
<path d="M519.62 559.659C518.765 559.659 518.073 558.969 518.073 558.119V539.393L507.964 531.813V512.339C507.964 511.487 508.657 510.798 509.511 510.798C510.365 510.798 511.058 511.488 511.058 512.339V530.275L521.167 537.855V558.119C521.167 558.969 520.474 559.659 519.62 559.659Z" fill="#317F8B"/>
<path d="M525.324 572.838C534.266 572.838 542.864 569.534 549.581 563.653C558.883 555.508 574.544 545.794 591.83 552.025C598.766 554.523 603.492 559.107 606.717 564.179C615.022 545.013 632.443 543.865 639.984 554.727C639.984 554.727 627.309 614.956 623.178 616.296C617.26 618.216 603.041 616.197 603.041 616.197C603.041 616.197 553.572 609.527 525.324 609.527C497.075 609.527 447.606 616.197 447.606 616.197C447.606 616.197 433.387 618.215 427.469 616.296C423.338 614.956 410.663 554.727 410.663 554.727C418.203 543.863 435.625 545.013 443.93 564.179C447.154 559.106 451.881 554.523 458.818 552.025C476.103 545.794 491.764 555.508 501.067 563.653C507.783 569.532 516.381 572.838 525.324 572.838Z" fill="white"/>
<g opacity="0.35">
<path d="M639.986 554.725C639.986 554.725 627.31 614.956 623.179 616.296C617.263 618.218 603.04 616.199 603.04 616.199C603.04 616.199 553.574 609.527 525.323 609.527C497.078 609.527 447.606 616.199 447.606 616.199C447.606 616.199 433.388 618.218 427.473 616.296C423.342 614.956 410.666 554.725 410.666 554.725C411.909 552.937 413.415 551.473 415.106 550.364C419.17 568.024 424.935 591.081 427.473 591.904C433.389 593.819 447.606 591.801 447.606 591.801C447.606 591.801 497.078 578.456 525.323 578.456C553.574 578.456 603.04 591.801 603.04 591.801C603.04 591.801 617.263 593.819 623.179 591.904C625.716 591.081 631.481 568.024 635.545 550.364C637.237 551.475 638.743 552.938 639.986 554.725Z" fill="#317F8B"/>
</g>
<path d="M435.096 619.173C431.993 619.173 428.962 618.941 426.831 618.25C425.377 617.778 424.154 616.173 421.861 609.056C420.518 604.89 418.907 599.088 417.073 591.812C413.771 578.713 410.553 564.022 409.323 558.314C408.679 555.326 409.662 552.235 411.89 550.249C416.167 546.435 421.9 544.967 427.617 546.221C431.221 547.011 434.727 548.885 437.757 551.639C440.266 553.922 442.448 556.773 444.267 560.144C447.958 555.452 452.605 552.079 458.118 550.092C464.365 547.84 470.901 547.393 477.545 548.763C482.91 549.87 488.365 552.163 493.758 555.583C494.72 556.193 495.002 557.463 494.391 558.42C493.78 559.378 492.504 559.659 491.543 559.051C480.443 552.012 469.669 550.299 459.522 553.957C453.799 556.019 449.139 559.828 445.675 565.279C445.266 565.923 444.531 566.288 443.77 566.229C443.008 566.169 442.342 565.695 442.038 564.995C438.568 556.986 432.989 551.607 426.731 550.236C422.324 549.27 417.918 550.391 414.642 553.313C413.515 554.317 413.023 555.904 413.357 557.455C414.518 562.842 417.562 576.743 420.732 589.443C422.475 596.424 424.02 602.103 425.324 606.322C427.149 612.229 428.103 613.962 428.442 614.445C433.102 615.746 443.584 614.696 447.317 614.166C447.322 614.165 447.326 614.165 447.331 614.164C447.826 614.098 497.262 607.475 525.325 607.475C553.388 607.475 602.823 614.098 603.318 614.164C603.323 614.165 603.329 614.165 603.333 614.166C607.067 614.696 617.548 615.746 622.208 614.445C622.542 613.971 623.469 612.288 625.234 606.622C626.507 602.536 628.014 597.029 629.715 590.255C632.747 578.176 635.653 565.033 637.116 558.275C637.596 556.06 636.762 553.79 634.993 552.491C631.618 550.012 627.434 549.272 623.214 550.408C617.168 552.036 611.983 557.216 608.613 564.996C608.31 565.695 607.643 566.17 606.88 566.23C606.117 566.29 605.384 565.924 604.975 565.28C601.511 559.83 596.853 556.02 591.13 553.958C580.893 550.268 570.027 552.042 558.832 559.228C557.874 559.842 556.598 559.568 555.98 558.613C555.363 557.66 555.639 556.389 556.597 555.773C562.023 552.29 567.513 549.945 572.915 548.804C579.626 547.385 586.227 547.82 592.534 550.093C598.047 552.08 602.694 555.455 606.386 560.146C610.26 552.972 615.764 548.156 622.138 546.441C627.519 544.992 633.096 545.991 637.443 549.183C640.516 551.44 641.97 555.347 641.151 559.14C639.602 566.3 636.531 580.173 633.372 592.626C631.581 599.689 630.008 605.315 628.696 609.348C626.457 616.23 625.255 617.787 623.819 618.253C617.546 620.288 603.477 618.337 602.76 618.236C601.985 618.132 553.029 611.585 525.326 611.585C497.618 611.585 448.667 618.132 447.891 618.236C447.415 618.3 441.123 619.173 435.096 619.173Z" fill="#317F8B"/>
<path d="M619.505 616.297H623.179C627.492 616.297 631.403 613.777 633.16 609.853C638.659 597.587 648.687 570.634 639.294 554.186C639.021 553.706 638.728 553.244 638.419 552.802C638.419 552.802 629.402 544.633 622.924 556.189C616.873 566.985 604.172 613.144 619.505 616.297Z" fill="#AFAFB2"/>
<g opacity="0.7">
<g opacity="0.7">
<g opacity="0.7">
<g opacity="0.7">
<path opacity="0.7" d="M619.606 563.883C619.768 563.625 619.93 563.381 620.088 563.154C628.053 551.598 639.141 559.767 639.141 559.767C639.521 560.209 639.883 560.671 640.216 561.151C641.329 562.735 642.218 564.414 642.913 566.173C642.464 561.853 641.342 557.769 639.294 554.187C639.021 553.707 638.728 553.245 638.419 552.803C638.419 552.803 629.402 544.634 622.924 556.19C621.941 557.939 620.788 560.611 619.606 563.883Z" fill="white"/>
</g>
</g>
</g>
</g>
<path d="M642.864 567.405C642.771 567.405 642.677 567.397 642.582 567.381L620.044 563.634C619.118 563.48 618.492 562.607 618.646 561.683C618.8 560.761 619.678 560.137 620.603 560.291L643.141 564.038C644.067 564.192 644.693 565.065 644.539 565.989C644.401 566.819 643.681 567.405 642.864 567.405Z" fill="#317F8B"/>
<path d="M642.72 579.533C642.645 579.533 642.569 579.529 642.491 579.517L616.126 575.987C615.196 575.863 614.542 575.01 614.667 574.083C614.792 573.156 615.648 572.505 616.58 572.629L642.945 576.16C643.876 576.284 644.529 577.137 644.404 578.064C644.29 578.915 643.56 579.533 642.72 579.533Z" fill="#317F8B"/>
<path d="M640.395 591.412C640.326 591.412 640.257 591.408 640.187 591.4L613.422 588.137C612.49 588.023 611.827 587.178 611.94 586.25C612.055 585.322 612.902 584.66 613.835 584.774L640.599 588.037C641.531 588.151 642.195 588.996 642.081 589.924C641.976 590.783 641.242 591.412 640.395 591.412Z" fill="#317F8B"/>
<path d="M636.151 604.368C636.1 604.368 636.048 604.365 635.996 604.361L612.067 602.21C611.132 602.127 610.443 601.302 610.526 600.371C610.61 599.439 611.438 598.751 612.374 598.836L636.302 600.986C637.237 601.07 637.928 601.894 637.843 602.826C637.763 603.706 637.021 604.368 636.151 604.368Z" fill="#317F8B"/>
<g opacity="0.35">
<g opacity="0.35">
<g opacity="0.35">
<g opacity="0.35">
<path opacity="0.35" d="M619.504 616.296H623.178C627.491 616.296 631.402 613.777 633.158 609.853C634.58 606.674 636.31 602.515 637.927 597.804C635.721 601.449 631.24 603.761 626.32 603.761H621.94C615.708 602.686 613.363 596.598 613.27 588.619C611.164 602.087 611.742 614.7 619.504 616.296Z" fill="#317F8B"/>
</g>
</g>
</g>
</g>
<path d="M623.179 617.991H619.505C619.389 617.991 619.275 617.979 619.162 617.956C616.192 617.345 613.948 615.427 612.491 612.254C609.056 604.775 610.725 591.746 612.731 582.132C615.183 570.384 618.968 559.772 621.44 555.363C623.712 551.309 626.575 548.974 629.947 548.426C635.12 547.586 639.385 551.386 639.564 551.548C639.658 551.633 639.742 551.729 639.815 551.831C640.154 552.315 640.477 552.826 640.775 553.349C645.068 560.867 645.979 571.15 643.483 583.911C641.453 594.286 637.595 604.12 634.714 610.543C632.688 615.068 628.162 617.991 623.179 617.991ZM619.69 614.602H623.179C626.819 614.602 630.128 612.468 631.606 609.164C634.414 602.902 638.174 593.324 640.143 583.265C642.48 571.322 641.696 561.82 637.817 555.024C637.606 554.654 637.38 554.292 637.146 553.947C636.508 553.428 633.613 551.253 630.476 551.774C628.188 552.154 626.147 553.917 624.41 557.015C622.122 561.097 618.419 571.529 616.063 582.822C613.374 595.71 613.204 605.662 615.585 610.846C616.551 612.95 617.895 614.181 619.69 614.602Z" fill="#317F8B"/>
<path d="M431.145 616.297H427.471C423.158 616.297 419.247 613.777 417.491 609.853C411.991 597.587 401.964 570.634 411.356 554.186C411.629 553.706 411.922 553.244 412.231 552.802C412.231 552.802 421.248 544.633 427.727 556.189C433.777 566.985 446.477 613.144 431.145 616.297Z" fill="#AFAFB2"/>
<g opacity="0.7">
<g opacity="0.7">
<g opacity="0.7">
<g opacity="0.7">
<path opacity="0.7" d="M431.042 563.883C430.88 563.625 430.718 563.381 430.56 563.154C422.595 551.598 411.507 559.767 411.507 559.767C411.127 560.209 410.765 560.671 410.432 561.151C409.319 562.735 408.43 564.414 407.735 566.173C408.184 561.853 409.306 557.769 411.354 554.187C411.627 553.707 411.92 553.245 412.229 552.803C412.229 552.803 421.246 544.634 427.724 556.19C428.706 557.939 429.861 560.611 431.042 563.883Z" fill="white"/>
</g>
</g>
</g>
</g>
<path d="M407.785 567.405C406.968 567.405 406.248 566.817 406.109 565.99C405.955 565.067 406.579 564.194 407.507 564.039L430.045 560.292C430.971 560.138 431.848 560.76 432.002 561.684C432.156 562.607 431.531 563.48 430.604 563.635L408.066 567.382C407.972 567.398 407.878 567.405 407.785 567.405Z" fill="#317F8B"/>
<path d="M407.927 579.533C407.088 579.533 406.358 578.915 406.243 578.065C406.119 577.138 406.772 576.285 407.703 576.161L434.069 572.629C435.001 572.504 435.856 573.156 435.982 574.083C436.106 575.01 435.453 575.863 434.522 575.987L408.156 579.519C408.079 579.529 408.003 579.533 407.927 579.533Z" fill="#317F8B"/>
<path d="M410.254 591.412C409.407 591.412 408.673 590.783 408.568 589.924C408.453 588.995 409.116 588.151 410.05 588.037L436.814 584.774C437.746 584.661 438.594 585.32 438.708 586.25C438.823 587.178 438.16 588.023 437.226 588.137L410.462 591.4C410.392 591.409 410.322 591.412 410.254 591.412Z" fill="#317F8B"/>
<path d="M414.499 604.367C413.628 604.367 412.887 603.706 412.807 602.826C412.723 601.894 413.413 601.071 414.348 600.986L438.276 598.836C439.213 598.752 440.038 599.439 440.124 600.371C440.207 601.302 439.518 602.126 438.583 602.21L414.654 604.361C414.602 604.365 414.55 604.367 414.499 604.367Z" fill="#317F8B"/>
<g opacity="0.35">
<g opacity="0.35">
<g opacity="0.35">
<g opacity="0.35">
<path opacity="0.35" d="M431.144 616.296H427.47C423.157 616.296 419.246 613.777 417.489 609.853C416.067 606.674 414.338 602.515 412.721 597.804C414.927 601.449 419.408 603.761 424.328 603.761H428.707C434.939 602.686 437.284 596.598 437.377 588.619C439.484 602.087 438.905 614.7 431.144 616.296Z" fill="#317F8B"/>
</g>
</g>
</g>
</g>
<path d="M431.144 617.99H427.471C422.489 617.99 417.961 615.068 415.936 610.543C413.057 604.121 409.197 594.287 407.168 583.912C404.672 571.151 405.582 560.868 409.875 553.349C410.174 552.826 410.497 552.316 410.835 551.833C410.907 551.729 410.991 551.634 411.085 551.549C411.264 551.386 415.529 547.587 420.702 548.427C424.074 548.975 426.938 551.31 429.21 555.364C431.682 559.773 435.467 570.385 437.919 582.133C439.924 591.747 441.594 604.777 438.159 612.255C436.702 615.428 434.458 617.346 431.488 617.957C431.375 617.979 431.259 617.99 431.144 617.99ZM413.503 553.948C413.268 554.292 413.044 554.654 412.833 555.023C408.952 561.82 408.169 571.32 410.506 583.265C412.474 593.326 416.233 602.902 419.042 609.164C420.522 612.469 423.829 614.603 427.469 614.603H430.958C432.753 614.182 434.098 612.951 435.064 610.846C437.445 605.662 437.276 595.71 434.587 582.822C432.231 571.529 428.527 561.097 426.239 557.015C424.503 553.917 422.462 552.154 420.174 551.774C417.042 551.254 414.148 553.423 413.503 553.948Z" fill="#317F8B"/>
<path d="M472.616 614.75C472.374 614.75 472.129 614.694 471.9 614.574C471.143 614.18 470.85 613.248 471.247 612.494C477.707 600.2 477.802 586.374 471.531 571.402C466.8 560.109 460.026 552.382 459.958 552.305C459.393 551.667 459.454 550.693 460.095 550.13C460.736 549.567 461.713 549.627 462.278 550.265C462.567 550.591 469.415 558.389 474.35 570.128C477.261 577.054 478.885 583.909 479.178 590.501C479.545 598.79 477.799 606.67 473.988 613.923C473.711 614.45 473.173 614.75 472.616 614.75Z" fill="#317F8B"/>
<path d="M578.66 614.75C578.102 614.75 577.565 614.45 577.288 613.923C573.477 606.67 571.731 598.791 572.098 590.502C572.391 583.91 574.015 577.055 576.926 570.129C581.861 558.39 588.709 550.591 588.998 550.266C589.564 549.628 590.542 549.567 591.182 550.131C591.823 550.693 591.884 551.666 591.318 552.305C591.25 552.381 584.476 560.109 579.745 571.402C573.474 586.375 573.569 600.2 580.029 612.494C580.425 613.248 580.132 614.179 579.376 614.574C579.147 614.694 578.902 614.75 578.66 614.75Z" fill="#317F8B"/>
<g opacity="0.35">
<path d="M576.59 466.711C574.805 468.745 572.928 470.676 570.973 472.49C566.332 476.794 561.246 480.457 555.806 483.359C546.615 488.27 536.42 491.023 525.683 491.074C515.193 491.12 505.209 488.583 496.159 483.97C490.233 480.945 484.71 477.036 479.713 472.377C477.227 470.055 474.87 467.553 472.657 464.888C476.665 463.656 480.646 462.227 484.291 460.814C488.819 449.951 494.1 438.825 500.258 427.699H550.39C555.48 436.898 559.972 446.092 563.933 455.148C567.709 457.341 572.056 461.472 576.59 466.711Z" fill="#317F8B"/>
</g>
<path d="M601.879 417.106C601.006 417.2 600.222 416.571 600.128 415.702L595.235 370.352C595.141 369.482 595.773 368.702 596.646 368.608C605.805 367.628 614.027 374.228 615.011 383.35L616.681 398.815C617.666 407.937 611.038 416.126 601.879 417.106Z" fill="white"/>
<path d="M601.706 417.506C601.256 417.506 600.821 417.355 600.466 417.069C600.054 416.738 599.796 416.267 599.739 415.743L594.847 370.393C594.79 369.869 594.942 369.354 595.274 368.944C595.606 368.534 596.079 368.277 596.605 368.221C605.966 367.219 614.397 373.987 615.402 383.309L617.07 398.774C617.558 403.289 616.251 407.724 613.389 411.26C610.528 414.796 606.455 417.011 601.921 417.496L601.879 417.108L601.921 417.496C601.85 417.503 601.777 417.506 601.706 417.506ZM598.441 368.902C597.862 368.902 597.278 368.932 596.689 368.995C596.371 369.029 596.085 369.185 595.884 369.432C595.683 369.681 595.592 369.991 595.626 370.309L600.519 415.659C600.553 415.976 600.709 416.261 600.958 416.461C601.208 416.66 601.52 416.752 601.838 416.718C606.164 416.255 610.049 414.142 612.78 410.768C615.51 407.395 616.758 403.164 616.293 398.855L614.625 383.391C613.727 375.084 606.649 368.902 598.441 368.902Z" fill="#317F8B"/>
<g opacity="0.35">
<g opacity="0.35">
<g opacity="0.35">
<g opacity="0.35">
<path opacity="0.35" d="M615.898 391.563L616.683 398.816C617.666 407.935 611.04 416.126 601.88 417.11C601.007 417.205 600.223 416.57 600.129 415.702L598.824 403.646C599.128 404.169 599.722 404.49 600.362 404.427L601.442 404.308C608.679 403.534 614.339 398.255 615.898 391.563Z" fill="#317F8B"/>
</g>
</g>
</g>
</g>
<path d="M601.704 419.29C600.846 419.29 600.021 419.001 599.344 418.457C598.559 417.828 598.068 416.931 597.96 415.934L593.067 370.584C592.96 369.587 593.249 368.607 593.881 367.825C594.512 367.044 595.412 366.555 596.414 366.447C606.753 365.341 616.07 372.819 617.182 383.118L618.85 398.583C619.388 403.572 617.944 408.471 614.782 412.379C611.621 416.285 607.121 418.733 602.112 419.268C601.977 419.282 601.84 419.29 601.704 419.29ZM601.649 414.946H601.648C601.648 414.946 601.648 414.946 601.649 414.946ZM597.472 370.718L602.235 414.873C605.849 414.34 609.081 412.501 611.387 409.651C613.817 406.648 614.927 402.883 614.514 399.047L612.846 383.583C612.012 375.862 605.181 370.203 597.472 370.718Z" fill="#317F8B"/>
<path d="M446.357 384.694C447.23 384.6 448.013 385.229 448.108 386.099L453 431.449C453.095 432.318 452.463 433.099 451.59 433.193C442.431 434.173 434.209 427.573 433.225 418.45L431.557 402.986C430.57 393.863 437.198 385.674 446.357 384.694Z" fill="white"/>
<path d="M449.794 433.679C441.192 433.68 433.773 427.2 432.834 418.492L431.166 403.027C430.16 393.705 436.955 385.307 446.315 384.305L446.357 384.694L446.315 384.305C447.4 384.189 448.38 384.975 448.497 386.057L453.389 431.407C453.506 432.489 452.717 433.464 451.631 433.58C451.015 433.647 450.4 433.679 449.794 433.679ZM446.527 385.074C446.484 385.074 446.442 385.077 446.398 385.081C437.468 386.037 430.984 394.05 431.945 402.944L433.613 418.409C434.572 427.303 442.616 433.761 451.547 432.805C452.203 432.735 452.681 432.146 452.61 431.492L447.718 386.142C447.652 385.53 447.13 385.074 446.527 385.074Z" fill="#317F8B"/>
<g opacity="0.35">
<g opacity="0.35">
<g opacity="0.35">
<g opacity="0.35">
<path opacity="0.35" d="M451.647 418.867L453.003 431.449C453.099 432.318 452.461 433.099 451.589 433.193C446.781 433.705 442.228 432.132 438.846 429.198C435.793 426.548 433.695 422.783 433.226 418.453L432.523 411.936C435.74 417.375 441.962 420.738 448.677 420.02L450.339 419.842C450.944 419.776 451.424 419.387 451.647 418.867Z" fill="#317F8B"/>
</g>
</g>
</g>
</g>
<path d="M449.793 435.461C440.288 435.463 432.092 428.303 431.054 418.682L429.386 403.217C428.275 392.918 435.784 383.639 446.124 382.532C448.19 382.311 450.055 383.806 450.277 385.865L455.17 431.216C455.392 433.276 453.891 435.131 451.822 435.352C451.141 435.426 450.463 435.461 449.793 435.461ZM446.002 386.929C438.359 388.058 432.891 395.034 433.724 402.754L435.392 418.219C436.225 425.94 443.056 431.598 450.765 431.084L446.002 386.929Z" fill="#317F8B"/>
<path d="M524.126 478.625C567.225 478.625 602.163 443.826 602.163 400.9C602.163 357.973 567.225 323.174 524.126 323.174C481.028 323.174 446.089 357.973 446.089 400.9C446.089 443.826 481.028 478.625 524.126 478.625Z" fill="white"/>
<path d="M524.051 479.017C514.483 479.017 505.136 477.308 496.224 473.925C486.748 470.329 478.163 465.001 470.705 458.091C463.247 451.18 457.294 443.035 453.009 433.881C448.573 424.403 446.131 414.255 445.748 403.716C445.366 393.178 447.068 382.88 450.807 373.108C454.417 363.67 459.767 355.119 466.704 347.691C473.642 340.263 481.822 334.333 491.014 330.065C500.53 325.647 510.719 323.214 521.3 322.833C531.88 322.453 542.22 324.148 552.03 327.872C561.506 331.468 570.091 336.796 577.549 343.706C585.007 350.616 590.96 358.762 595.245 367.915C599.681 377.393 602.124 387.542 602.506 398.081C602.888 408.619 601.186 418.917 597.447 428.688C593.837 438.127 588.487 446.677 581.549 454.106C574.61 461.534 566.432 467.463 557.242 471.731C547.726 476.149 537.536 478.582 526.956 478.962C525.984 478.999 525.016 479.017 524.051 479.017ZM524.163 323.563C523.219 323.563 522.278 323.58 521.327 323.614C478.542 325.152 444.989 361.072 446.532 403.687C447.279 424.33 456.054 443.449 471.238 457.519C485.719 470.938 504.38 478.234 524.056 478.235C525.011 478.235 525.966 478.218 526.925 478.183C547.651 477.439 566.846 468.7 580.973 453.576C595.099 438.452 602.467 418.754 601.72 398.111C600.212 356.443 565.693 323.563 524.163 323.563Z" fill="#317F8B"/>
<g opacity="0.35">
<g opacity="0.35">
<g opacity="0.35">
<g opacity="0.35">
<path opacity="0.35" d="M600.977 387.372C601.6 390.866 601.982 394.446 602.115 398.098C603.663 440.996 570.009 477.026 526.939 478.576C483.869 480.118 447.695 446.599 446.138 403.702C446.092 402.468 446.077 401.233 446.091 400.014C452.718 437.637 486.347 465.578 525.754 464.163C567.586 462.657 600.53 428.63 600.977 387.372Z" fill="#317F8B"/>
</g>
</g>
</g>
</g>
<path d="M524.05 480.799C514.263 480.799 504.703 479.051 495.588 475.591C485.896 471.913 477.114 466.463 469.487 459.396C461.86 452.328 455.771 443.996 451.388 434.634C446.85 424.939 444.352 414.557 443.962 403.78C443.572 393.002 445.313 382.468 449.138 372.473C452.831 362.82 458.302 354.072 465.398 346.476C472.494 338.88 480.857 332.814 490.258 328.45C499.992 323.93 510.415 321.442 521.236 321.053C532.058 320.665 542.633 322.398 552.668 326.208C562.36 329.886 571.142 335.336 578.769 342.404C586.396 349.471 592.485 357.803 596.868 367.166C601.406 376.86 603.904 387.242 604.294 398.02C604.684 408.797 602.943 419.331 599.119 429.327C595.425 438.98 589.954 447.727 582.858 455.323C575.762 462.919 567.397 468.984 557.997 473.349C548.263 477.869 537.84 480.357 527.019 480.746C526.028 480.781 525.037 480.799 524.05 480.799ZM524.164 325.346C523.242 325.346 522.322 325.363 521.394 325.396C479.594 326.898 446.814 361.991 448.322 403.624C449.052 423.791 457.625 442.468 472.459 456.215C486.607 469.325 504.837 476.454 524.061 476.454C524.993 476.454 525.927 476.437 526.864 476.403C547.112 475.676 565.864 467.138 579.666 452.363C593.468 437.588 600.666 418.344 599.935 398.177C598.46 357.467 564.736 325.346 524.164 325.346Z" fill="#317F8B"/>
<path d="M601.937 400.101C602.719 415.29 598.492 429.646 590.626 441.745C584.729 450.817 559.423 467.457 527.217 469.389C497.355 471.18 469.357 456.701 462.561 448.278C453.494 437.041 447.819 423.192 447.037 408.002C444.97 367.806 478.787 349.373 521.565 347.191C564.34 345.009 599.87 359.905 601.937 400.101Z" fill="#17A2B8"/>
<path d="M522.034 471.036C507.185 471.036 494.271 467.35 485.698 464.057C474.843 459.887 465.301 454.06 461.39 449.213C451.792 437.318 446.31 423.093 445.538 408.078C445.025 398.115 446.675 389.074 450.439 381.206C453.982 373.802 459.417 367.387 466.595 362.138C479.708 352.547 498.689 346.862 521.485 345.7C544.283 344.538 563.747 348.261 577.774 356.467C585.452 360.958 591.518 366.787 595.801 373.793C600.353 381.236 602.921 390.062 603.433 400.025C604.205 415.041 600.21 429.748 591.883 442.557C588.423 447.879 579.829 454.403 569.457 459.58C560.346 464.128 545.637 469.781 527.305 470.879C525.525 470.986 523.765 471.036 522.034 471.036ZM529.535 348.477C526.953 348.477 524.322 348.545 521.639 348.682C499.429 349.815 481.009 355.3 468.37 364.544C454.258 374.866 447.584 389.462 448.533 407.926C449.272 422.31 454.527 435.94 463.727 447.343C466.465 450.735 474.144 456.419 486.778 461.272C496.073 464.842 510.616 468.889 527.126 467.899C544.951 466.829 559.255 461.333 568.116 456.91C579.989 450.983 586.985 444.599 589.369 440.935C597.352 428.656 601.181 414.562 600.442 400.178C599.492 381.715 591.355 367.874 576.258 359.042C564.369 352.087 548.33 348.477 529.535 348.477Z" fill="#317F8B"/>
<g opacity="0.5">
<g opacity="0.5">
<g opacity="0.5">
<g opacity="0.5">
<path d="M586.401 397.196C587.375 389.661 583.721 382.984 578.24 382.281C572.759 381.578 567.526 387.116 566.552 394.65C565.578 402.185 569.232 408.862 574.713 409.565C580.194 410.268 585.427 404.73 586.401 397.196Z" fill="white"/>
</g>
</g>
</g>
</g>
<g opacity="0.5">
<g opacity="0.5">
<g opacity="0.5">
<g opacity="0.5">
<path d="M570.89 425.201C571.813 421.838 570.212 418.472 567.314 417.683C564.416 416.894 561.319 418.981 560.396 422.345C559.473 425.708 561.074 429.074 563.972 429.863C566.87 430.651 569.967 428.564 570.89 425.201Z" fill="white"/>
</g>
</g>
</g>
</g>
<g opacity="0.35">
<path d="M584.946 363.37C594.877 371.885 601.104 383.955 601.936 400.099C602.718 415.292 598.489 429.646 590.629 441.746C584.729 450.817 559.421 467.456 527.215 469.392C515.844 470.078 504.746 468.399 494.981 465.591C534.518 462.372 565.337 441.96 572.65 430.709C582.636 415.353 587.998 397.131 587.004 377.857C586.743 372.704 586.036 367.881 584.946 363.37Z" fill="#317F8B"/>
</g>
<path d="M451.107 375.519C450.667 375.519 450.225 375.382 449.846 375.098C448.955 374.43 448.749 373.191 449.356 372.277C452.595 366.978 456.73 362.135 461.647 357.884C466.434 353.746 472.002 350.133 478.194 347.146C484.257 344.222 490.959 341.879 498.112 340.183C505.2 338.503 512.766 337.448 520.604 337.048C528.313 336.655 535.866 336.92 543.054 337.835C550.307 338.759 557.204 340.348 563.551 342.556C570.045 344.816 575.986 347.734 581.211 351.23C586.583 354.823 591.229 359.05 595.023 363.792C595.685 364.523 595.753 365.642 595.133 366.455C594.432 367.375 593.115 367.553 592.192 366.855L591.972 366.692L591.807 366.482C577.759 348.846 551.884 339.639 520.818 341.223C489.581 342.817 464.83 354.947 452.91 374.502L452.855 374.591L452.784 374.685C452.373 375.231 451.744 375.519 451.107 375.519Z" fill="#317F8B"/>
<g opacity="0.5">
<g opacity="0.5">
<g opacity="0.5">
<g opacity="0.5">
<path d="M465.66 431.028C465.66 431.028 451.122 392.011 471.766 375.114C492.41 358.218 523.284 356.708 522.663 358.716C522.663 358.716 488.912 368.699 476.923 396.291C467.678 417.567 465.66 431.028 465.66 431.028Z" fill="white"/>
</g>
</g>
</g>
</g>
<path d="M594.85 620.768H456.447C451.966 620.768 448.333 617.15 448.333 612.687C448.333 610.115 450.426 608.03 453.008 608.03H598.289C600.871 608.03 602.964 610.115 602.964 612.687C602.964 617.151 599.331 620.768 594.85 620.768Z" fill="#E6E9FA"/>
<g opacity="0.3">
<g opacity="0.3">
<g opacity="0.3">
<g opacity="0.3">
<path opacity="0.3" d="M602.962 612.688C602.962 613.571 602.818 614.419 602.555 615.215C601.828 613.587 600.193 612.457 598.29 612.457H453.009C451.72 612.457 450.55 612.976 449.704 613.824C449.301 614.225 448.971 614.692 448.74 615.216C448.477 614.42 448.333 613.573 448.333 612.689C448.333 611.405 448.853 610.239 449.705 609.397C450.551 608.55 451.721 608.03 453.01 608.03H598.29C600.874 608.029 602.962 610.114 602.962 612.688Z" fill="white"/>
</g>
</g>
</g>
</g>
<g opacity="0.35">
<g opacity="0.35">
<g opacity="0.35">
<g opacity="0.35">
<path opacity="0.35" d="M602.962 612.688C602.962 614.917 602.055 616.941 600.584 618.399C599.119 619.863 597.087 620.767 594.85 620.767H456.449C451.968 620.767 448.332 617.151 448.332 612.688C448.332 611.829 448.564 611.023 448.976 610.33C450.203 613.222 453.091 615.256 456.448 615.256H594.849C597.087 615.256 599.119 614.352 600.583 612.888C601.315 612.158 601.908 611.291 602.315 610.33C602.73 611.023 602.962 611.829 602.962 612.688Z" fill="#317F8B"/>
</g>
</g>
</g>
</g>
<path d="M594.851 622.824H456.448C450.836 622.824 446.271 618.277 446.271 612.688C446.271 608.988 449.294 605.977 453.009 605.977H598.29C602.005 605.977 605.028 608.988 605.028 612.688C605.028 618.276 600.462 622.824 594.851 622.824ZM453.008 610.086C451.568 610.086 450.395 611.252 450.395 612.688C450.395 616.012 453.11 618.715 456.447 618.715H594.851C598.188 618.715 600.902 616.012 600.902 612.688C600.902 611.253 599.731 610.086 598.29 610.086H453.008Z" fill="#317F8B"/>
<path d="M611.043 517.04L597.506 608.028H453.794L453.304 604.736L440.25 517.04C439.823 514.159 442.066 511.575 444.984 511.575H606.308C609.234 511.575 611.471 514.159 611.043 517.04Z" fill="#FF66AC"/>
<path d="M611.043 517.04L597.506 608.028H453.794L453.304 604.736L440.25 517.04C439.823 514.159 442.066 511.575 444.984 511.575H606.308C609.234 511.575 611.471 514.159 611.043 517.04Z" fill="#E6E9FA"/>
<g opacity="0.5">
<g opacity="0.5">
<g opacity="0.5">
<g opacity="0.5">
<path opacity="0.5" d="M445.353 522.688C444.926 519.807 447.169 517.223 450.087 517.223H611.017L611.044 517.041C611.471 514.16 609.234 511.576 606.31 511.576H444.986C442.067 511.576 439.824 514.16 440.252 517.041L453.304 604.737L453.794 608.029H458.057L445.353 522.688Z" fill="white"/>
</g>
</g>
</g>
</g>
<g opacity="0.35">
<g opacity="0.35">
<g opacity="0.35">
<g opacity="0.35">
<path opacity="0.35" d="M601.774 511.575H590.446C594.741 527.249 592.371 562.642 564.66 581.139C529.874 604.359 467.181 604.212 453.871 604.736L454.361 608.028H592.971L606.508 517.04C606.935 514.159 604.698 511.575 601.774 511.575Z" fill="#317F8B"/>
</g>
</g>
</g>
</g>
<path d="M599.284 610.086H452.014L438.213 517.341C437.92 515.377 438.5 513.389 439.802 511.886C441.103 510.382 442.994 509.521 444.986 509.521H606.312C608.305 509.521 610.195 510.382 611.496 511.886C612.798 513.389 613.378 515.377 613.085 517.341L599.284 610.086ZM455.573 605.976H595.725L609.004 516.737C609.122 515.946 608.897 515.176 608.372 514.569C607.847 513.963 607.116 513.629 606.312 513.629H444.986C444.182 513.629 443.451 513.964 442.926 514.569C442.401 515.176 442.176 515.946 442.294 516.737L455.573 605.976Z" fill="#317F8B"/>
<g opacity="0.3">
<g opacity="0.3">
<g opacity="0.3">
<g opacity="0.3">
<path opacity="0.3" d="M465.233 586.77C459.781 574.801 455.812 554.369 456.706 542.345C457.601 530.32 464.603 533.999 466.773 549.402C472.548 590.395 467.667 592.115 465.233 586.77Z" fill="white"/>
</g>
</g>
</g>
</g>
<path d="M544.425 549.479C544.601 547.943 544.805 546.39 544.502 544.828C544.367 544.658 544.243 544.485 544.108 544.315C543.662 544.155 543.227 543.946 542.762 543.829C539.492 542.988 536.177 542.655 532.809 542.944C528.417 543.321 524.386 544.671 520.92 547.451C519.664 548.454 518.52 549.587 517.349 550.686C517.035 550.984 516.793 551.108 516.352 550.907C515.315 550.438 514.197 550.228 513.061 550.171C510.017 550.033 507.3 551.014 504.766 552.598C502.019 554.322 499.806 556.624 497.744 559.09C496.867 560.135 497.208 561.299 498.514 561.738C499.339 562.006 500.163 562.269 500.987 562.538C502.963 563.175 504.933 563.806 506.903 564.442C506.899 564.503 506.904 564.535 506.895 564.565C506.879 564.604 506.862 564.648 506.835 564.685C506.013 565.738 506.213 566.711 507.079 567.626C507.172 567.728 507.252 567.848 507.334 567.958C507.788 568.552 508.251 569.153 508.732 569.772C508.076 570.277 507.43 570.706 506.86 571.224C506.572 571.485 506.318 571.865 506.209 572.241C506.024 572.847 506.34 573.467 506.882 573.786C507.456 574.13 508.048 574.116 508.584 573.732C509.263 573.25 509.911 572.729 510.602 572.203C511.254 573.06 511.872 573.869 512.492 574.669C513.203 575.58 513.693 575.736 514.795 575.432C514.996 575.37 515.194 575.327 515.431 575.27C515.447 575.505 515.465 575.693 515.476 575.869C515.616 578.707 515.745 581.548 515.902 584.377C515.973 585.719 517.037 586.353 518.254 585.778C519.352 585.262 520.45 584.715 521.527 584.133C524.01 582.788 526.268 581.142 528.07 578.952C530.326 576.196 531.574 573.118 530.99 569.482C530.965 569.338 531.085 569.093 531.21 569.02C532.317 568.309 533.453 567.644 534.561 566.928C537.064 565.303 539.077 563.191 540.651 560.668C542.79 557.238 543.97 553.475 544.425 549.479ZM508.533 561.755C506.252 561.016 503.888 560.248 501.459 559.46C503.968 556.804 506.624 554.484 510.201 553.505C511.746 553.082 513.532 553.118 514.587 553.545C512.584 556.266 510.577 558.988 508.533 561.755ZM527.713 573.43C527.133 575.272 526.027 576.772 524.664 578.109C522.97 579.752 520.998 580.979 518.866 582.097C518.738 579.488 518.606 576.936 518.477 574.436C521.701 573.187 524.853 571.969 528.021 570.742C528.144 571.612 527.994 572.533 527.713 573.43ZM539.617 555.963C538.579 558.401 537.219 560.621 535.277 562.46C533.779 563.871 532.081 565.002 530.291 566.009C525.441 568.736 520.241 570.617 514.926 572.207C514.666 572.281 514.507 572.268 514.336 572.031C513.965 571.505 513.549 570.999 513.157 570.481C513.131 570.452 513.122 570.403 513.084 570.311C513.22 570.202 513.365 570.095 513.512 569.983C516.545 567.663 519.593 565.351 522.627 563.027C523.504 562.364 523.542 561.225 522.73 560.567C522.163 560.105 521.416 560.112 520.762 560.602C518.936 561.989 517.115 563.376 515.294 564.769C513.936 565.803 512.589 566.833 511.178 567.911C510.694 567.28 510.227 566.705 509.805 566.1C509.733 565.992 509.806 565.718 509.903 565.584C511.52 563.181 513.124 560.765 514.807 558.403C516.471 556.059 518.364 553.892 520.446 551.905C522.397 550.026 524.513 548.369 527.07 547.38C528.71 546.744 530.401 546.312 532.149 546.126C532.308 546.103 532.538 546.261 532.65 546.407C534.427 548.695 536.182 550.986 537.943 553.283C538.472 553.966 538.993 554.663 539.538 555.338C539.701 555.541 539.721 555.715 539.617 555.963ZM540.67 552.762C538.915 550.471 537.201 548.243 535.484 546.005C535.486 545.954 535.501 545.894 535.509 545.839C537.508 546.077 539.511 546.321 541.536 546.563C541.498 548.734 541.176 550.723 540.67 552.762Z" fill="#317F8B"/>
<path d="M539.54 555.337C538.995 554.661 538.474 553.965 537.946 553.281C536.186 550.985 534.43 548.694 532.653 546.406C532.541 546.26 532.31 546.102 532.152 546.124C530.404 546.311 528.712 546.743 527.073 547.379C524.515 548.367 522.4 550.025 520.448 551.903C518.366 553.891 516.474 556.057 514.809 558.402C513.127 560.765 511.523 563.181 509.906 565.583C509.809 565.717 509.736 565.99 509.808 566.099C510.228 566.704 510.695 567.279 511.181 567.909C512.591 566.832 513.938 565.801 515.297 564.767C517.118 563.375 518.939 561.987 520.765 560.601C521.419 560.111 522.165 560.105 522.733 560.566C523.545 561.224 523.508 562.364 522.63 563.026C519.596 565.35 516.548 567.662 513.514 569.982C513.368 570.094 513.222 570.201 513.087 570.309C513.124 570.403 513.133 570.45 513.159 570.48C513.552 570.998 513.968 571.504 514.339 572.029C514.51 572.267 514.669 572.28 514.928 572.206C520.244 570.615 525.443 568.735 530.294 566.007C532.082 565.002 533.782 563.869 535.28 562.459C537.22 560.62 538.582 558.4 539.62 555.961C539.722 555.715 539.701 555.541 539.54 555.337ZM534.217 558.833C531.898 560.574 528.616 560.148 526.874 557.87C525.121 555.595 525.563 552.329 527.861 550.565C530.116 548.835 533.399 549.282 535.158 551.558C536.896 553.82 536.472 557.135 534.217 558.833Z" fill="white"/>
<path d="M540.67 552.761C538.914 550.474 537.199 548.243 535.483 546.005C535.489 545.952 535.5 545.896 535.508 545.839C537.507 546.079 539.512 546.322 541.539 546.564C541.5 548.732 541.175 550.723 540.67 552.761Z" fill="#DB2C2C"/>
<path d="M514.587 553.546C512.582 556.264 510.575 558.988 508.533 561.757C506.249 561.013 503.885 560.247 501.458 559.461C503.969 556.802 506.624 554.482 510.2 553.505C511.746 553.08 513.529 553.118 514.587 553.546Z" fill="#DB2C2C"/>
<path d="M524.661 578.109C522.968 579.753 520.998 580.981 518.864 582.097C518.735 579.49 518.605 576.938 518.477 574.436C521.7 573.188 524.852 571.971 528.024 570.741C528.146 571.613 527.993 572.532 527.715 573.432C527.135 575.274 526.029 576.773 524.661 578.109Z" fill="#DB2C2C"/>
<path d="M535.156 551.558C533.399 549.282 530.115 548.836 527.859 550.565C525.562 552.331 525.12 555.596 526.873 557.87C528.615 560.148 531.896 560.574 534.215 558.834C536.472 557.135 536.896 553.82 535.156 551.558ZM532.653 556.912C531.478 557.799 529.752 557.565 528.837 556.396C527.89 555.191 528.149 553.42 529.402 552.494C530.575 551.618 532.334 551.872 533.217 553.047C534.14 554.269 533.886 555.984 532.653 556.912Z" fill="#317F8B"/>
<path d="M532.651 556.912C531.476 557.799 529.75 557.565 528.833 556.394C527.891 555.191 528.146 553.42 529.399 552.494C530.575 551.62 532.331 551.871 533.215 553.044C534.138 554.267 533.887 555.985 532.651 556.912Z" fill="#22A7F0"/>
<path d="M610.331 521.841C610.331 521.841 599.193 516.577 588.734 521.299C578.718 525.821 571.632 558.016 584.609 566.171C592.618 571.205 598.069 566.759 602.601 568.064C609.321 570 623.11 536.851 610.331 521.841Z" fill="white"/>
<g opacity="0.35">
<path d="M615.356 542.793C614.036 556.287 606.883 569.298 602.602 568.064C598.069 566.76 592.618 571.207 584.609 566.174C578.41 562.275 576.791 552.896 577.884 543.66C578.621 549.049 580.71 553.666 584.609 556.116C592.618 561.144 597.951 558.808 602.602 558.007C608.352 557.015 613.04 550.76 615.356 542.793Z" fill="#317F8B"/>
</g>
<path d="M592.82 570.688C590.118 570.688 586.991 570.099 583.506 567.909C580.387 565.949 578.134 562.776 576.811 558.48C575.699 554.875 575.284 550.482 575.609 545.775C575.993 540.202 577.37 534.484 579.482 529.675C581.097 526.001 583.865 521.24 587.88 519.428C599.082 514.37 610.723 519.753 611.213 519.985L611.614 520.174L611.901 520.512C617.75 527.381 618.088 536.871 617.341 543.622C616.499 551.228 613.804 559.297 610.306 564.679C606.802 570.07 603.868 570.569 602.025 570.038C600.828 569.694 599.317 569.934 597.566 570.213C596.183 570.435 594.593 570.688 592.82 570.688ZM598.267 521.382C595.131 521.382 592.225 521.979 589.585 523.172C587.414 524.152 585.109 527.123 583.264 531.324C581.363 535.647 580.074 541.017 579.726 546.059C579.111 554.961 581.292 561.659 585.708 564.435C590.161 567.234 593.596 566.686 596.916 566.157C599.063 565.814 601.09 565.491 603.173 566.091C603.413 566.133 605.129 565.473 607.55 561.296C613.196 551.555 616.777 533.158 609.053 523.527C608.177 523.165 605.924 522.312 602.976 521.802C601.356 521.522 599.784 521.382 598.267 521.382Z" fill="#317F8B"/>
<path d="M331.19 668.762L325.02 692.374H320.788L316.848 678.226C316.751 677.882 316.643 677.472 316.525 676.999C316.406 676.525 316.288 676.04 316.169 675.545C316.062 675.05 315.965 674.598 315.879 674.188C315.803 673.768 315.749 673.445 315.717 673.219C315.696 673.445 315.647 673.763 315.572 674.172C315.496 674.581 315.405 675.034 315.297 675.529C315.2 676.013 315.093 676.498 314.974 676.982C314.856 677.456 314.748 677.876 314.651 678.242L310.775 692.374H306.56L300.406 668.762H304.299L307.706 682.603C307.814 683.044 307.922 683.524 308.029 684.04C308.148 684.546 308.255 685.058 308.352 685.575C308.46 686.092 308.557 686.598 308.643 687.093C308.729 687.577 308.799 688.019 308.853 688.417C308.907 688.008 308.977 687.556 309.063 687.061C309.149 686.554 309.241 686.043 309.338 685.526C309.445 684.999 309.553 684.493 309.661 684.008C309.779 683.524 309.897 683.087 310.016 682.7L313.86 668.762H317.639L321.564 682.748C321.682 683.147 321.795 683.594 321.903 684.089C322.021 684.584 322.134 685.09 322.242 685.607C322.35 686.124 322.447 686.624 322.533 687.109C322.619 687.594 322.689 688.03 322.743 688.417C322.818 687.89 322.915 687.287 323.033 686.608C323.152 685.93 323.286 685.241 323.437 684.541C323.588 683.841 323.739 683.195 323.889 682.603L327.281 668.762H331.19ZM341.268 674.156C342.861 674.156 344.229 674.485 345.37 675.141C346.511 675.798 347.389 676.729 348.002 677.935C348.616 679.141 348.923 680.584 348.923 682.264V684.299H336.988C337.031 686.032 337.494 687.367 338.377 688.304C339.27 689.241 340.519 689.709 342.124 689.709C343.265 689.709 344.288 689.602 345.192 689.386C346.107 689.16 347.05 688.832 348.019 688.401V691.486C347.125 691.906 346.215 692.213 345.289 692.406C344.363 692.6 343.254 692.697 341.962 692.697C340.207 692.697 338.662 692.358 337.327 691.68C336.002 690.991 334.963 689.968 334.21 688.611C333.467 687.254 333.095 685.569 333.095 683.556C333.095 681.553 333.434 679.852 334.113 678.452C334.791 677.052 335.744 675.987 336.972 675.254C338.199 674.522 339.631 674.156 341.268 674.156ZM341.268 677.015C340.072 677.015 339.103 677.402 338.36 678.178C337.628 678.953 337.198 680.089 337.068 681.585H345.208C345.198 680.692 345.047 679.9 344.756 679.211C344.476 678.522 344.046 677.984 343.464 677.596C342.893 677.209 342.161 677.015 341.268 677.015ZM357.015 692.374H353.203V667.244H357.015V692.374ZM369.644 692.697C367.954 692.697 366.49 692.369 365.251 691.712C364.013 691.055 363.06 690.048 362.393 688.692C361.725 687.335 361.391 685.612 361.391 683.524C361.391 681.349 361.758 679.572 362.49 678.194C363.222 676.816 364.234 675.798 365.526 675.141C366.829 674.485 368.32 674.156 370 674.156C371.066 674.156 372.029 674.264 372.891 674.479C373.763 674.684 374.5 674.937 375.103 675.238L373.973 678.275C373.316 678.005 372.643 677.779 371.954 677.596C371.265 677.413 370.603 677.322 369.967 677.322C368.923 677.322 368.051 677.553 367.351 678.016C366.662 678.479 366.145 679.168 365.801 680.083C365.467 680.999 365.3 682.135 365.3 683.491C365.3 684.805 365.472 685.914 365.817 686.818C366.161 687.712 366.673 688.39 367.351 688.853C368.029 689.306 368.864 689.532 369.854 689.532C370.834 689.532 371.712 689.413 372.487 689.176C373.262 688.939 373.994 688.633 374.683 688.256V691.55C374.005 691.938 373.278 692.223 372.503 692.406C371.728 692.6 370.775 692.697 369.644 692.697ZM394.71 683.394C394.71 684.88 394.517 686.199 394.129 687.351C393.741 688.503 393.176 689.478 392.433 690.275C391.69 691.061 390.797 691.664 389.752 692.083C388.708 692.493 387.529 692.697 386.215 692.697C384.988 692.697 383.862 692.493 382.84 692.083C381.817 691.664 380.928 691.061 380.175 690.275C379.432 689.478 378.856 688.503 378.447 687.351C378.037 686.199 377.833 684.88 377.833 683.394C377.833 681.424 378.172 679.755 378.85 678.388C379.539 677.009 380.519 675.96 381.79 675.238C383.06 674.517 384.573 674.156 386.328 674.156C387.976 674.156 389.429 674.517 390.689 675.238C391.949 675.96 392.934 677.009 393.644 678.388C394.355 679.766 394.71 681.435 394.71 683.394ZM381.741 683.394C381.741 684.697 381.897 685.812 382.21 686.738C382.533 687.664 383.028 688.374 383.696 688.869C384.363 689.354 385.225 689.596 386.28 689.596C387.335 689.596 388.196 689.354 388.864 688.869C389.531 688.374 390.021 687.664 390.334 686.738C390.646 685.812 390.802 684.697 390.802 683.394C390.802 682.092 390.646 680.988 390.334 680.083C390.021 679.168 389.531 678.474 388.864 678C388.196 677.515 387.33 677.273 386.264 677.273C384.692 677.273 383.545 677.801 382.823 678.856C382.102 679.911 381.741 681.424 381.741 683.394ZM419.276 674.156C421.278 674.156 422.786 674.673 423.798 675.707C424.821 676.74 425.332 678.398 425.332 680.681V692.374H421.537V681.359C421.537 680.003 421.273 678.98 420.745 678.291C420.218 677.602 419.416 677.257 418.339 677.257C416.832 677.257 415.744 677.742 415.076 678.711C414.42 679.669 414.091 681.063 414.091 682.894V692.374H410.296V681.359C410.296 680.455 410.177 679.701 409.941 679.098C409.714 678.485 409.365 678.027 408.891 677.725C408.417 677.413 407.819 677.257 407.098 677.257C406.054 677.257 405.219 677.494 404.595 677.968C403.981 678.441 403.539 679.141 403.27 680.067C403.001 680.982 402.867 682.108 402.867 683.443V692.374H399.071V674.495H402.027L402.56 676.902H402.77C403.136 676.277 403.588 675.766 404.126 675.367C404.675 674.958 405.284 674.657 405.951 674.463C406.619 674.258 407.313 674.156 408.035 674.156C409.37 674.156 410.495 674.393 411.41 674.867C412.325 675.33 413.009 676.04 413.461 676.999H413.752C414.312 676.03 415.093 675.314 416.094 674.851C417.095 674.388 418.156 674.156 419.276 674.156ZM437.752 674.156C439.346 674.156 440.713 674.485 441.854 675.141C442.996 675.798 443.873 676.729 444.487 677.935C445.101 679.141 445.408 680.584 445.408 682.264V684.299H433.472C433.515 686.032 433.978 687.367 434.861 688.304C435.755 689.241 437.004 689.709 438.608 689.709C439.749 689.709 440.772 689.602 441.677 689.386C442.592 689.16 443.534 688.832 444.503 688.401V691.486C443.609 691.906 442.7 692.213 441.774 692.406C440.848 692.6 439.739 692.697 438.447 692.697C436.692 692.697 435.146 692.358 433.811 691.68C432.487 690.991 431.448 689.968 430.694 688.611C429.951 687.254 429.58 685.569 429.58 683.556C429.58 681.553 429.919 679.852 430.597 678.452C431.276 677.052 432.229 675.987 433.456 675.254C434.683 674.522 436.116 674.156 437.752 674.156ZM437.752 677.015C436.557 677.015 435.588 677.402 434.845 678.178C434.113 678.953 433.682 680.089 433.553 681.585H441.693C441.682 680.692 441.531 679.9 441.241 679.211C440.961 678.522 440.53 677.984 439.949 677.596C439.378 677.209 438.646 677.015 437.752 677.015ZM465.289 674.156C467.55 674.156 469.257 674.657 470.409 675.658C471.572 676.659 472.153 678.221 472.153 680.342V692.374H469.456L468.729 689.838H468.6C468.094 690.485 467.572 691.017 467.033 691.437C466.495 691.857 465.871 692.17 465.16 692.374C464.46 692.589 463.604 692.697 462.592 692.697C461.526 692.697 460.573 692.503 459.733 692.116C458.893 691.717 458.231 691.114 457.747 690.307C457.262 689.499 457.02 688.476 457.02 687.238C457.02 685.397 457.704 684.013 459.071 683.087C460.449 682.161 462.527 681.65 465.305 681.553L468.406 681.44V680.503C468.406 679.265 468.115 678.382 467.534 677.855C466.963 677.327 466.156 677.063 465.111 677.063C464.218 677.063 463.351 677.192 462.511 677.451C461.671 677.709 460.853 678.027 460.056 678.404L458.829 675.723C459.701 675.26 460.692 674.883 461.801 674.592C462.92 674.301 464.083 674.156 465.289 674.156ZM468.39 683.83L466.081 683.911C464.185 683.976 462.856 684.299 462.091 684.88C461.327 685.462 460.945 686.258 460.945 687.271C460.945 688.153 461.208 688.799 461.736 689.209C462.264 689.607 462.958 689.806 463.819 689.806C465.133 689.806 466.22 689.435 467.082 688.692C467.954 687.938 468.39 686.834 468.39 685.381V683.83ZM481.262 667.244V673.3C481.262 674 481.241 674.689 481.198 675.367C481.165 676.035 481.133 676.557 481.101 676.934H481.262C481.747 676.159 482.42 675.507 483.281 674.98C484.153 674.441 485.268 674.172 486.624 674.172C488.745 674.172 490.452 674.953 491.744 676.514C493.036 678.065 493.682 680.363 493.682 683.41C493.682 685.435 493.386 687.136 492.794 688.514C492.202 689.892 491.367 690.937 490.29 691.647C489.225 692.347 487.97 692.697 486.527 692.697C485.171 692.697 484.072 692.45 483.233 691.954C482.404 691.448 481.752 690.861 481.278 690.194H481.004L480.309 692.374H477.467V667.244H481.262ZM485.623 677.257C484.546 677.257 483.69 677.472 483.055 677.903C482.43 678.334 481.978 678.98 481.698 679.841C481.418 680.692 481.273 681.774 481.262 683.087V683.427C481.262 685.419 481.574 686.942 482.199 687.997C482.834 689.052 483.986 689.58 485.655 689.58C486.98 689.58 487.997 689.047 488.708 687.981C489.418 686.904 489.774 685.365 489.774 683.362C489.774 681.338 489.418 679.814 488.708 678.791C488.008 677.768 486.98 677.257 485.623 677.257ZM513.903 683.394C513.903 684.88 513.709 686.199 513.321 687.351C512.934 688.503 512.369 689.478 511.626 690.275C510.883 691.061 509.989 691.664 508.945 692.083C507.9 692.493 506.721 692.697 505.408 692.697C504.18 692.697 503.055 692.493 502.032 692.083C501.009 691.664 500.121 691.061 499.367 690.275C498.624 689.478 498.048 688.503 497.639 687.351C497.23 686.199 497.025 684.88 497.025 683.394C497.025 681.424 497.364 679.755 498.043 678.388C498.732 677.009 499.712 675.96 500.982 675.238C502.253 674.517 503.766 674.156 505.521 674.156C507.168 674.156 508.622 674.517 509.881 675.238C511.141 675.96 512.126 677.009 512.837 678.388C513.548 679.766 513.903 681.435 513.903 683.394ZM500.934 683.394C500.934 684.697 501.09 685.812 501.402 686.738C501.725 687.664 502.22 688.374 502.888 688.869C503.556 689.354 504.417 689.596 505.472 689.596C506.527 689.596 507.389 689.354 508.056 688.869C508.724 688.374 509.214 687.664 509.526 686.738C509.838 685.812 509.994 684.697 509.994 683.394C509.994 682.092 509.838 680.988 509.526 680.083C509.214 679.168 508.724 678.474 508.056 678C507.389 677.515 506.522 677.273 505.456 677.273C503.884 677.273 502.737 677.801 502.016 678.856C501.295 679.911 500.934 681.424 500.934 683.394ZM525.273 674.156C527.534 674.156 529.241 674.657 530.393 675.658C531.556 676.659 532.137 678.221 532.137 680.342V692.374H529.44L528.713 689.838H528.584C528.078 690.485 527.556 691.017 527.017 691.437C526.479 691.857 525.854 692.17 525.144 692.374C524.444 692.589 523.588 692.697 522.576 692.697C521.51 692.697 520.557 692.503 519.717 692.116C518.877 691.717 518.215 691.114 517.731 690.307C517.246 689.499 517.004 688.476 517.004 687.238C517.004 685.397 517.688 684.013 519.055 683.087C520.433 682.161 522.511 681.65 525.289 681.553L528.39 681.44V680.503C528.39 679.265 528.099 678.382 527.518 677.855C526.947 677.327 526.14 677.063 525.095 677.063C524.202 677.063 523.335 677.192 522.495 677.451C521.655 677.709 520.837 678.027 520.04 678.404L518.813 675.723C519.685 675.26 520.675 674.883 521.784 674.592C522.904 674.301 524.067 674.156 525.273 674.156ZM528.374 683.83L526.064 683.911C524.169 683.976 522.84 684.299 522.075 684.88C521.311 685.462 520.928 686.258 520.928 687.271C520.928 688.153 521.192 688.799 521.72 689.209C522.247 689.607 522.942 689.806 523.803 689.806C525.117 689.806 526.204 689.435 527.066 688.692C527.938 687.938 528.374 686.834 528.374 685.381V683.83ZM546.511 674.156C546.813 674.156 547.141 674.172 547.496 674.205C547.852 674.237 548.159 674.28 548.417 674.334L548.062 677.887C547.836 677.822 547.556 677.774 547.222 677.742C546.899 677.709 546.608 677.693 546.35 677.693C545.671 677.693 545.025 677.806 544.412 678.032C543.798 678.248 543.254 678.581 542.78 679.034C542.307 679.475 541.935 680.03 541.666 680.697C541.397 681.365 541.262 682.14 541.262 683.023V692.374H537.451V674.495H540.422L540.939 677.645H541.117C541.472 677.009 541.914 676.428 542.441 675.9C542.969 675.373 543.572 674.953 544.25 674.641C544.939 674.318 545.693 674.156 546.511 674.156ZM557.736 692.697C555.604 692.697 553.892 691.922 552.6 690.371C551.319 688.81 550.678 686.511 550.678 683.475C550.678 680.406 551.329 678.086 552.632 676.514C553.946 674.942 555.674 674.156 557.817 674.156C558.721 674.156 559.513 674.28 560.191 674.528C560.869 674.764 561.451 675.087 561.935 675.497C562.43 675.906 562.85 676.363 563.195 676.869H563.373C563.319 676.536 563.254 676.057 563.179 675.432C563.114 674.797 563.082 674.21 563.082 673.672V667.244H566.893V692.374H563.922L563.243 689.935H563.082C562.759 690.452 562.35 690.921 561.854 691.34C561.37 691.75 560.788 692.078 560.11 692.326C559.443 692.573 558.651 692.697 557.736 692.697ZM558.802 689.612C560.428 689.612 561.574 689.144 562.242 688.207C562.91 687.271 563.254 685.865 563.276 683.992V683.491C563.276 681.489 562.953 679.954 562.307 678.888C561.661 677.812 560.482 677.273 558.77 677.273C557.402 677.273 556.358 677.828 555.636 678.937C554.926 680.035 554.57 681.569 554.57 683.54C554.57 685.51 554.926 687.017 555.636 688.062C556.358 689.096 557.413 689.612 558.802 689.612ZM601.133 674.156C603.136 674.156 604.643 674.673 605.655 675.707C606.678 676.74 607.19 678.398 607.19 680.681V692.374H603.394V681.359C603.394 680.003 603.13 678.98 602.603 678.291C602.075 677.602 601.273 677.257 600.196 677.257C598.689 677.257 597.601 677.742 596.934 678.711C596.277 679.669 595.949 681.063 595.949 682.894V692.374H592.153V681.359C592.153 680.455 592.035 679.701 591.798 679.098C591.572 678.485 591.222 678.027 590.748 677.725C590.274 677.413 589.677 677.257 588.955 677.257C587.911 677.257 587.076 677.494 586.452 677.968C585.838 678.441 585.397 679.141 585.128 680.067C584.858 680.982 584.724 682.108 584.724 683.443V692.374H580.928V674.495H583.884L584.417 676.902H584.627C584.993 676.277 585.445 675.766 585.984 675.367C586.533 674.958 587.141 674.657 587.809 674.463C588.476 674.258 589.171 674.156 589.892 674.156C591.227 674.156 592.352 674.393 593.268 674.867C594.183 675.33 594.866 676.04 595.319 676.999H595.609C596.169 676.03 596.95 675.314 597.951 674.851C598.953 674.388 600.013 674.156 601.133 674.156ZM609.79 674.495H613.924L617.591 684.703C617.752 685.166 617.897 685.623 618.027 686.075C618.167 686.517 618.285 686.953 618.382 687.384C618.49 687.814 618.576 688.245 618.64 688.676H618.737C618.845 688.116 618.996 687.491 619.19 686.802C619.394 686.102 619.62 685.402 619.868 684.703L623.389 674.495H627.475L619.803 694.829C619.362 695.992 618.818 696.982 618.172 697.801C617.537 698.63 616.783 699.254 615.911 699.674C615.039 700.105 614.043 700.32 612.923 700.32C612.385 700.32 611.916 700.288 611.518 700.223C611.12 700.17 610.78 700.11 610.5 700.046V697.009C610.727 697.063 611.012 697.112 611.356 697.155C611.701 697.198 612.056 697.219 612.422 697.219C613.101 697.219 613.688 697.085 614.183 696.816C614.678 696.546 615.098 696.164 615.443 695.669C615.787 695.184 616.072 694.63 616.299 694.005L616.928 692.326L609.79 674.495ZM647.712 677.386H643.367V692.374H639.572V677.386H636.648V675.561L639.572 674.447V673.203C639.572 671.685 639.809 670.479 640.282 669.585C640.767 668.692 641.456 668.051 642.35 667.664C643.254 667.265 644.331 667.066 645.58 667.066C646.398 667.066 647.146 667.136 647.825 667.276C648.503 667.405 649.074 667.556 649.537 667.728L648.552 670.603C648.185 670.485 647.776 670.377 647.324 670.28C646.872 670.172 646.387 670.118 645.871 670.118C645.009 670.118 644.374 670.388 643.965 670.926C643.566 671.464 643.367 672.25 643.367 673.284V674.495H647.712V677.386ZM659.825 674.156C660.126 674.156 660.455 674.172 660.81 674.205C661.165 674.237 661.472 674.28 661.731 674.334L661.375 677.887C661.149 677.822 660.869 677.774 660.535 677.742C660.212 677.709 659.922 677.693 659.663 677.693C658.985 677.693 658.339 677.806 657.725 678.032C657.111 678.248 656.568 678.581 656.094 679.034C655.62 679.475 655.249 680.03 654.98 680.697C654.71 681.365 654.576 682.14 654.576 683.023V692.374H650.764V674.495H653.736L654.253 677.645H654.43C654.786 677.009 655.227 676.428 655.755 675.9C656.282 675.373 656.885 674.953 657.564 674.641C658.253 674.318 659.006 674.156 659.825 674.156ZM668.837 674.495V692.374H665.041V674.495H668.837ZM666.963 667.647C667.545 667.647 668.046 667.803 668.465 668.116C668.896 668.428 669.111 668.966 669.111 669.731C669.111 670.485 668.896 671.023 668.465 671.346C668.046 671.658 667.545 671.814 666.963 671.814C666.36 671.814 665.849 671.658 665.429 671.346C665.02 671.023 664.815 670.485 664.815 669.731C664.815 668.966 665.02 668.428 665.429 668.116C665.849 667.803 666.36 667.647 666.963 667.647ZM681.402 674.156C682.996 674.156 684.363 674.485 685.504 675.141C686.646 675.798 687.523 676.729 688.137 677.935C688.751 679.141 689.058 680.584 689.058 682.264V684.299H677.122C677.165 686.032 677.628 687.367 678.511 688.304C679.405 689.241 680.654 689.709 682.258 689.709C683.399 689.709 684.422 689.602 685.327 689.386C686.242 689.16 687.184 688.832 688.153 688.401V691.486C687.26 691.906 686.35 692.213 685.424 692.406C684.498 692.6 683.389 692.697 682.097 692.697C680.342 692.697 678.797 692.358 677.461 691.68C676.137 690.991 675.098 689.968 674.344 688.611C673.601 687.254 673.23 685.569 673.23 683.556C673.23 681.553 673.569 679.852 674.247 678.452C674.926 677.052 675.879 675.987 677.106 675.254C678.334 674.522 679.766 674.156 681.402 674.156ZM681.402 677.015C680.207 677.015 679.238 677.402 678.495 678.178C677.763 678.953 677.332 680.089 677.203 681.585H685.343C685.332 680.692 685.181 679.9 684.891 679.211C684.611 678.522 684.18 677.984 683.599 677.596C683.028 677.209 682.296 677.015 681.402 677.015ZM702.657 674.156C704.67 674.156 706.237 674.678 707.356 675.723C708.487 676.756 709.052 678.42 709.052 680.713V692.374H705.257V681.424C705.257 680.035 704.971 678.996 704.401 678.307C703.83 677.607 702.947 677.257 701.752 677.257C700.019 677.257 698.813 677.79 698.134 678.856C697.467 679.922 697.133 681.467 697.133 683.491V692.374H693.338V674.495H696.293L696.826 676.918H697.036C697.424 676.293 697.903 675.782 698.473 675.384C699.055 674.974 699.701 674.668 700.412 674.463C701.133 674.258 701.881 674.156 702.657 674.156ZM720.374 692.697C718.242 692.697 716.53 691.922 715.238 690.371C713.957 688.81 713.316 686.511 713.316 683.475C713.316 680.406 713.967 678.086 715.27 676.514C716.584 674.942 718.312 674.156 720.455 674.156C721.359 674.156 722.15 674.28 722.829 674.528C723.507 674.764 724.089 675.087 724.573 675.497C725.068 675.906 725.488 676.363 725.833 676.869H726.011C725.957 676.536 725.892 676.057 725.817 675.432C725.752 674.797 725.72 674.21 725.72 673.672V667.244H729.531V692.374H726.56L725.881 689.935H725.72C725.397 690.452 724.988 690.921 724.492 691.34C724.008 691.75 723.426 692.078 722.748 692.326C722.08 692.573 721.289 692.697 720.374 692.697ZM721.44 689.612C723.066 689.612 724.212 689.144 724.88 688.207C725.548 687.271 725.892 685.865 725.914 683.992V683.491C725.914 681.489 725.591 679.954 724.945 678.888C724.299 677.812 723.12 677.273 721.408 677.273C720.04 677.273 718.996 677.828 718.274 678.937C717.564 680.035 717.208 681.569 717.208 683.54C717.208 685.51 717.564 687.017 718.274 688.062C718.996 689.096 720.051 689.612 721.44 689.612ZM363.465 736.009C362.869 736.009 362.385 735.931 362.015 735.774V734.502C362.448 734.628 362.875 734.69 363.296 734.69C363.786 734.69 364.144 734.555 364.37 734.285C364.602 734.022 364.718 733.616 364.718 733.07V721.048H366.282V732.957C366.282 734.992 365.343 736.009 363.465 736.009ZM364.587 718.25C364.587 717.892 364.674 717.632 364.85 717.468C365.026 717.299 365.246 717.214 365.51 717.214C365.761 717.214 365.978 717.299 366.16 717.468C366.342 717.638 366.433 717.899 366.433 718.25C366.433 718.602 366.342 718.866 366.16 719.042C365.978 719.211 365.761 719.296 365.51 719.296C365.246 719.296 365.026 719.211 364.85 719.042C364.674 718.866 364.587 718.602 364.587 718.25ZM371.068 721.048V727.747C371.068 728.589 371.26 729.217 371.643 729.631C372.026 730.046 372.626 730.253 373.443 730.253C374.523 730.253 375.311 729.958 375.807 729.367C376.31 728.777 376.561 727.813 376.561 726.475V721.048H378.125V731.374H376.834L376.608 729.989H376.523C376.203 730.498 375.757 730.887 375.185 731.157C374.62 731.428 373.973 731.563 373.245 731.563C371.989 731.563 371.046 731.264 370.418 730.668C369.797 730.071 369.486 729.116 369.486 727.803V721.048H371.068ZM388.111 728.557C388.111 729.518 387.753 730.259 387.037 730.781C386.321 731.302 385.316 731.563 384.023 731.563C382.653 731.563 381.586 731.346 380.819 730.913V729.462C381.316 729.713 381.846 729.911 382.412 730.055C382.983 730.2 383.533 730.272 384.06 730.272C384.877 730.272 385.505 730.143 385.945 729.886C386.384 729.622 386.604 729.223 386.604 728.689C386.604 728.287 386.428 727.945 386.076 727.662C385.731 727.373 385.053 727.034 384.041 726.645C383.081 726.287 382.396 725.976 381.988 725.712C381.586 725.442 381.284 725.137 381.083 724.798C380.888 724.459 380.791 724.054 380.791 723.583C380.791 722.741 381.133 722.078 381.818 721.595C382.503 721.105 383.442 720.86 384.635 720.86C385.747 720.86 386.833 721.086 387.895 721.538L387.339 722.81C386.303 722.383 385.364 722.17 384.522 722.17C383.781 722.17 383.222 722.286 382.845 722.518C382.468 722.751 382.28 723.071 382.28 723.479C382.28 723.755 382.349 723.991 382.487 724.186C382.631 724.38 382.861 724.566 383.175 724.742C383.489 724.917 384.092 725.172 384.984 725.505C386.208 725.951 387.034 726.4 387.461 726.852C387.895 727.304 388.111 727.873 388.111 728.557ZM394 730.272C394.276 730.272 394.543 730.253 394.801 730.215C395.058 730.171 395.262 730.127 395.413 730.083V731.28C395.243 731.362 394.992 731.428 394.659 731.478C394.333 731.534 394.037 731.563 393.774 731.563C391.776 731.563 390.778 730.511 390.778 728.406V722.264H389.299V721.51L390.778 720.86L391.437 718.655H392.342V721.048H395.338V722.264H392.342V728.34C392.342 728.962 392.489 729.44 392.784 729.773C393.08 730.105 393.485 730.272 394 730.272ZM408.848 731.374L408.537 729.904H408.461C407.946 730.551 407.431 730.991 406.916 731.223C406.408 731.45 405.77 731.563 405.004 731.563C403.98 731.563 403.176 731.299 402.592 730.771C402.014 730.244 401.725 729.493 401.725 728.52C401.725 726.434 403.393 725.341 406.728 725.241L408.48 725.184V724.544C408.48 723.733 408.304 723.137 407.953 722.754C407.607 722.364 407.051 722.17 406.285 722.17C405.425 722.17 404.451 722.433 403.364 722.961L402.884 721.764C403.393 721.488 403.949 721.271 404.552 721.114C405.161 720.957 405.77 720.879 406.379 720.879C407.61 720.879 408.521 721.152 409.111 721.699C409.708 722.245 410.006 723.121 410.006 724.327V731.374H408.848ZM405.315 730.272C406.288 730.272 407.051 730.005 407.604 729.471C408.163 728.937 408.443 728.19 408.443 727.229V726.296L406.879 726.362C405.635 726.406 404.737 726.601 404.184 726.946C403.638 727.285 403.364 727.816 403.364 728.538C403.364 729.104 403.534 729.534 403.873 729.829C404.219 730.124 404.699 730.272 405.315 730.272ZM422.377 731.563C420.882 731.563 419.723 731.104 418.9 730.187C418.084 729.264 417.675 727.961 417.675 726.277C417.675 724.55 418.09 723.215 418.919 722.273C419.754 721.331 420.941 720.86 422.48 720.86C422.976 720.86 423.473 720.913 423.969 721.02C424.465 721.127 424.854 721.253 425.137 721.397L424.657 722.725C424.311 722.587 423.934 722.474 423.526 722.386C423.118 722.292 422.757 722.245 422.443 722.245C420.345 722.245 419.296 723.583 419.296 726.258C419.296 727.527 419.55 728.501 420.059 729.179C420.574 729.857 421.334 730.196 422.339 730.196C423.199 730.196 424.082 730.011 424.986 729.641V731.026C424.295 731.384 423.425 731.563 422.377 731.563ZM436.358 726.202C436.358 727.885 435.934 729.201 435.086 730.149C434.238 731.092 433.067 731.563 431.572 731.563C430.648 731.563 429.829 731.346 429.113 730.913C428.397 730.479 427.844 729.857 427.455 729.047C427.065 728.237 426.871 727.288 426.871 726.202C426.871 724.519 427.291 723.209 428.133 722.273C428.975 721.331 430.143 720.86 431.638 720.86C433.082 720.86 434.229 721.34 435.076 722.301C435.931 723.262 436.358 724.563 436.358 726.202ZM428.491 726.202C428.491 727.521 428.755 728.526 429.282 729.217C429.81 729.908 430.586 730.253 431.609 730.253C432.633 730.253 433.409 729.911 433.936 729.226C434.47 728.535 434.737 727.527 434.737 726.202C434.737 724.889 434.47 723.894 433.936 723.215C433.409 722.531 432.627 722.188 431.591 722.188C430.567 722.188 429.794 722.524 429.273 723.196C428.752 723.869 428.491 724.87 428.491 726.202ZM440.578 721.048V727.747C440.578 728.589 440.77 729.217 441.153 729.631C441.536 730.046 442.136 730.253 442.953 730.253C444.033 730.253 444.821 729.958 445.317 729.367C445.82 728.777 446.071 727.813 446.071 726.475V721.048H447.635V731.374H446.344L446.118 729.989H446.033C445.713 730.498 445.267 730.887 444.696 731.157C444.13 731.428 443.483 731.563 442.755 731.563C441.499 731.563 440.556 731.264 439.928 730.668C439.307 730.071 438.996 729.116 438.996 727.803V721.048H440.578ZM455.766 731.563C455.094 731.563 454.478 731.44 453.919 731.195C453.366 730.944 452.902 730.561 452.525 730.046H452.412C452.487 730.649 452.525 731.22 452.525 731.76V736.009H450.961V721.048H452.233L452.449 722.462H452.525C452.927 721.896 453.395 721.488 453.928 721.237C454.462 720.986 455.075 720.86 455.766 720.86C457.135 720.86 458.19 721.328 458.931 722.264C459.679 723.2 460.052 724.512 460.052 726.202C460.052 727.898 459.672 729.217 458.912 730.159C458.159 731.095 457.11 731.563 455.766 731.563ZM455.539 722.188C454.484 722.188 453.721 722.48 453.25 723.065C452.779 723.649 452.537 724.578 452.525 725.853V726.202C452.525 727.653 452.766 728.692 453.25 729.32C453.734 729.942 454.509 730.253 455.577 730.253C456.469 730.253 457.166 729.892 457.669 729.17C458.177 728.447 458.432 727.452 458.432 726.183C458.432 724.895 458.177 723.909 457.669 723.225C457.166 722.534 456.456 722.188 455.539 722.188ZM464.358 731.374H462.794V716.715H464.358V731.374ZM472.036 731.563C470.51 731.563 469.304 731.098 468.418 730.168C467.539 729.239 467.099 727.948 467.099 726.296C467.099 724.632 467.508 723.31 468.324 722.33C469.147 721.35 470.249 720.86 471.631 720.86C472.925 720.86 473.949 721.287 474.702 722.141C475.456 722.989 475.833 724.11 475.833 725.505V726.494H468.72C468.751 727.706 469.056 728.626 469.634 729.254C470.218 729.882 471.037 730.196 472.093 730.196C473.204 730.196 474.303 729.964 475.39 729.499V730.894C474.837 731.132 474.313 731.302 473.817 731.402C473.327 731.509 472.733 731.563 472.036 731.563ZM471.612 722.17C470.783 722.17 470.12 722.44 469.624 722.98C469.134 723.52 468.845 724.267 468.757 725.222H474.156C474.156 724.236 473.936 723.482 473.496 722.961C473.057 722.433 472.429 722.17 471.612 722.17ZM492.433 726.202C492.433 727.885 492.009 729.201 491.161 730.149C490.313 731.092 489.142 731.563 487.647 731.563C486.724 731.563 485.904 731.346 485.188 730.913C484.472 730.479 483.919 729.857 483.53 729.047C483.141 728.237 482.946 727.288 482.946 726.202C482.946 724.519 483.367 723.209 484.208 722.273C485.05 721.331 486.218 720.86 487.713 720.86C489.158 720.86 490.304 721.34 491.152 722.301C492.006 723.262 492.433 724.563 492.433 726.202ZM484.566 726.202C484.566 727.521 484.83 728.526 485.358 729.217C485.885 729.908 486.661 730.253 487.685 730.253C488.709 730.253 489.484 729.911 490.012 729.226C490.546 728.535 490.813 727.527 490.813 726.202C490.813 724.889 490.546 723.894 490.012 723.215C489.484 722.531 488.702 722.188 487.666 722.188C486.642 722.188 485.87 722.524 485.348 723.196C484.827 723.869 484.566 724.87 484.566 726.202ZM499.838 722.264H497.21V731.374H495.646V722.264H493.799V721.557L495.646 720.992V720.417C495.646 717.88 496.754 716.611 498.971 716.611C499.518 716.611 500.159 716.721 500.893 716.941L500.488 718.194C499.885 717.999 499.37 717.902 498.943 717.902C498.353 717.902 497.916 718.1 497.634 718.495C497.351 718.885 497.21 719.513 497.21 720.38V721.048H499.838V722.264ZM510.861 731.563C509.366 731.563 508.207 731.104 507.385 730.187C506.568 729.264 506.16 727.961 506.16 726.277C506.16 724.55 506.574 723.215 507.404 722.273C508.239 721.331 509.426 720.86 510.965 720.86C511.461 720.86 511.957 720.913 512.453 721.02C512.949 721.127 513.339 721.253 513.622 721.397L513.141 722.725C512.796 722.587 512.419 722.474 512.011 722.386C511.602 722.292 511.241 722.245 510.927 722.245C508.829 722.245 507.78 723.583 507.78 726.258C507.78 727.527 508.035 728.501 508.543 729.179C509.059 729.857 509.818 730.196 510.823 730.196C511.684 730.196 512.566 730.011 513.471 729.641V731.026C512.78 731.384 511.91 731.563 510.861 731.563ZM517.494 731.374H515.93V716.715H517.494V731.374ZM522.374 731.374H520.81V721.048H522.374V731.374ZM520.678 718.25C520.678 717.892 520.766 717.632 520.942 717.468C521.118 717.299 521.338 717.214 521.601 717.214C521.853 717.214 522.069 717.299 522.251 717.468C522.434 717.638 522.525 717.899 522.525 718.25C522.525 718.602 522.434 718.866 522.251 719.042C522.069 719.211 521.853 719.296 521.601 719.296C521.338 719.296 521.118 719.211 520.942 719.042C520.766 718.866 520.678 718.602 520.678 718.25ZM529.817 731.563C528.322 731.563 527.163 731.104 526.34 730.187C525.524 729.264 525.115 727.961 525.115 726.277C525.115 724.55 525.53 723.215 526.359 722.273C527.194 721.331 528.382 720.86 529.92 720.86C530.417 720.86 530.913 720.913 531.409 721.02C531.905 721.127 532.294 721.253 532.577 721.397L532.097 722.725C531.751 722.587 531.374 722.474 530.966 722.386C530.558 722.292 530.197 722.245 529.883 722.245C527.785 722.245 526.736 723.583 526.736 726.258C526.736 727.527 526.99 728.501 527.499 729.179C528.014 729.857 528.774 730.196 529.779 730.196C530.639 730.196 531.522 730.011 532.426 729.641V731.026C531.735 731.384 530.866 731.563 529.817 731.563ZM536.43 726.089C536.701 725.706 537.112 725.203 537.665 724.581L541 721.048H542.856L538.673 725.448L543.148 731.374H541.254L537.608 726.494L536.43 727.511V731.374H534.885V716.715H536.43V724.487C536.43 724.833 536.405 725.367 536.355 726.089H536.43ZM551.683 728.557C551.683 729.518 551.325 730.259 550.609 730.781C549.893 731.302 548.888 731.563 547.595 731.563C546.225 731.563 545.158 731.346 544.391 730.913V729.462C544.888 729.713 545.418 729.911 545.984 730.055C546.555 730.2 547.105 730.272 547.632 730.272C548.449 730.272 549.077 730.143 549.517 729.886C549.956 729.622 550.176 729.223 550.176 728.689C550.176 728.287 550 727.945 549.648 727.662C549.303 727.373 548.625 727.034 547.613 726.645C546.653 726.287 545.968 725.976 545.56 725.712C545.158 725.442 544.856 725.137 544.655 724.798C544.46 724.459 544.363 724.054 544.363 723.583C544.363 722.741 544.705 722.078 545.39 721.595C546.075 721.105 547.014 720.86 548.207 720.86C549.319 720.86 550.405 721.086 551.467 721.538L550.911 722.81C549.875 722.383 548.936 722.17 548.094 722.17C547.353 722.17 546.794 722.286 546.417 722.518C546.04 722.751 545.852 723.071 545.852 723.479C545.852 723.755 545.921 723.991 546.059 724.186C546.203 724.38 546.433 724.566 546.747 724.742C547.061 724.917 547.664 725.172 548.556 725.505C549.78 725.951 550.606 726.4 551.033 726.852C551.467 727.304 551.683 727.873 551.683 728.557ZM565.599 731.374L565.288 729.904H565.212C564.697 730.551 564.182 730.991 563.667 731.223C563.159 731.45 562.521 731.563 561.755 731.563C560.731 731.563 559.927 731.299 559.343 730.771C558.765 730.244 558.476 729.493 558.476 728.52C558.476 726.434 560.144 725.341 563.479 725.241L565.231 725.184V724.544C565.231 723.733 565.055 723.137 564.704 722.754C564.358 722.364 563.802 722.17 563.036 722.17C562.176 722.17 561.202 722.433 560.115 722.961L559.635 721.764C560.144 721.488 560.7 721.271 561.303 721.114C561.912 720.957 562.521 720.879 563.13 720.879C564.361 720.879 565.272 721.152 565.862 721.699C566.459 722.245 566.757 723.121 566.757 724.327V731.374H565.599ZM562.066 730.272C563.039 730.272 563.802 730.005 564.355 729.471C564.914 728.937 565.194 728.19 565.194 727.229V726.296L563.63 726.362C562.386 726.406 561.488 726.601 560.935 726.946C560.389 727.285 560.115 727.816 560.115 728.538C560.115 729.104 560.285 729.534 560.624 729.829C560.97 730.124 561.45 730.272 562.066 730.272ZM577.055 731.374V724.694C577.055 723.853 576.863 723.225 576.48 722.81C576.097 722.396 575.497 722.188 574.681 722.188C573.6 722.188 572.809 722.48 572.307 723.065C571.804 723.649 571.553 724.613 571.553 725.957V731.374H569.989V721.048H571.261L571.515 722.462H571.591C571.911 721.953 572.36 721.56 572.938 721.284C573.516 721.001 574.159 720.86 574.869 720.86C576.113 720.86 577.049 721.161 577.677 721.764C578.305 722.361 578.619 723.319 578.619 724.638V731.374H577.055ZM588.869 729.989H588.784C588.062 731.038 586.982 731.563 585.543 731.563C584.193 731.563 583.141 731.101 582.387 730.178C581.64 729.254 581.266 727.942 581.266 726.24C581.266 724.537 581.643 723.215 582.397 722.273C583.15 721.331 584.199 720.86 585.543 720.86C586.944 720.86 588.018 721.369 588.766 722.386H588.888L588.822 721.642L588.784 720.917V716.715H590.348V731.374H589.076L588.869 729.989ZM585.741 730.253C586.809 730.253 587.582 729.964 588.059 729.386C588.543 728.802 588.784 727.863 588.784 726.569V726.24C588.784 724.776 588.539 723.733 588.05 723.112C587.566 722.484 586.79 722.17 585.723 722.17C584.806 722.17 584.102 722.528 583.612 723.244C583.129 723.953 582.887 724.958 582.887 726.258C582.887 727.577 583.129 728.573 583.612 729.245C584.096 729.917 584.806 730.253 585.741 730.253ZM607.118 731.374L605.225 725.316C605.105 724.946 604.882 724.104 604.556 722.791H604.48C604.229 723.891 604.009 724.738 603.821 725.335L601.871 731.374H600.062L597.245 721.048H598.884C599.55 723.642 600.055 725.618 600.401 726.974C600.753 728.331 600.954 729.245 601.004 729.716H601.079C601.148 729.358 601.258 728.896 601.409 728.331C601.566 727.76 601.701 727.307 601.814 726.974L603.708 721.048H605.404L607.25 726.974C607.602 728.055 607.84 728.962 607.966 729.697H608.041C608.067 729.471 608.133 729.122 608.239 728.651C608.352 728.18 609.009 725.646 610.208 721.048H611.829L608.974 731.374H607.118ZM618.066 731.563C616.539 731.563 615.334 731.098 614.448 730.168C613.569 729.239 613.129 727.948 613.129 726.296C613.129 724.632 613.537 723.31 614.354 722.33C615.177 721.35 616.279 720.86 617.661 720.86C618.954 720.86 619.978 721.287 620.732 722.141C621.486 722.989 621.862 724.11 621.862 725.505V726.494H614.749C614.781 727.706 615.085 728.626 615.663 729.254C616.247 729.882 617.067 730.196 618.122 730.196C619.234 730.196 620.333 729.964 621.42 729.499V730.894C620.867 731.132 620.342 731.302 619.846 731.402C619.356 731.509 618.763 731.563 618.066 731.563ZM617.642 722.17C616.813 722.17 616.15 722.44 615.654 722.98C615.164 723.52 614.875 724.267 614.787 725.222H620.185C620.185 724.236 619.966 723.482 619.526 722.961C619.086 722.433 618.458 722.17 617.642 722.17ZM636.211 728.557C636.211 729.518 635.853 730.259 635.137 730.781C634.421 731.302 633.416 731.563 632.122 731.563C630.753 731.563 629.685 731.346 628.919 730.913V729.462C629.415 729.713 629.946 729.911 630.511 730.055C631.083 730.2 631.632 730.272 632.16 730.272C632.976 730.272 633.605 730.143 634.044 729.886C634.484 729.622 634.704 729.223 634.704 728.689C634.704 728.287 634.528 727.945 634.176 727.662C633.831 727.373 633.152 727.034 632.141 726.645C631.18 726.287 630.495 725.976 630.087 725.712C629.685 725.442 629.384 725.137 629.183 724.798C628.988 724.459 628.891 724.054 628.891 723.583C628.891 722.741 629.233 722.078 629.918 721.595C630.602 721.105 631.541 720.86 632.735 720.86C633.846 720.86 634.933 721.086 635.994 721.538L635.439 722.81C634.402 722.383 633.463 722.17 632.622 722.17C631.88 722.17 631.321 722.286 630.945 722.518C630.568 722.751 630.379 723.071 630.379 723.479C630.379 723.755 630.448 723.991 630.587 724.186C630.731 724.38 630.96 724.566 631.274 724.742C631.588 724.917 632.191 725.172 633.083 725.505C634.308 725.951 635.134 726.4 635.561 726.852C635.994 727.304 636.211 727.873 636.211 728.557ZM642.099 730.272C642.376 730.272 642.643 730.253 642.9 730.215C643.158 730.171 643.362 730.127 643.513 730.083V731.28C643.343 731.362 643.092 731.428 642.759 731.478C642.432 731.534 642.137 731.563 641.873 731.563C639.876 731.563 638.877 730.511 638.877 728.406V722.264H637.398V721.51L638.877 720.86L639.537 718.655H640.441V721.048H643.437V722.264H640.441V728.34C640.441 728.962 640.589 729.44 640.884 729.773C641.179 730.105 641.584 730.272 642.099 730.272ZM651.935 731.374L651.624 729.904H651.549C651.034 730.551 650.519 730.991 650.004 731.223C649.495 731.45 648.858 731.563 648.091 731.563C647.067 731.563 646.264 731.299 645.679 730.771C645.102 730.244 644.813 729.493 644.813 728.52C644.813 726.434 646.48 725.341 649.815 725.241L651.568 725.184V724.544C651.568 723.733 651.392 723.137 651.04 722.754C650.695 722.364 650.139 722.17 649.373 722.17C648.512 722.17 647.539 722.433 646.452 722.961L645.971 721.764C646.48 721.488 647.036 721.271 647.639 721.114C648.248 720.957 648.858 720.879 649.467 720.879C650.698 720.879 651.609 721.152 652.199 721.699C652.796 722.245 653.094 723.121 653.094 724.327V731.374H651.935ZM648.402 730.272C649.376 730.272 650.139 730.005 650.692 729.471C651.251 728.937 651.53 728.19 651.53 727.229V726.296L649.966 726.362C648.722 726.406 647.824 726.601 647.272 726.946C646.725 727.285 646.452 727.816 646.452 728.538C646.452 729.104 646.622 729.534 646.961 729.829C647.306 730.124 647.787 730.272 648.402 730.272ZM661.036 720.86C661.495 720.86 661.906 720.898 662.27 720.973L662.054 722.424C661.626 722.33 661.25 722.283 660.923 722.283C660.088 722.283 659.372 722.622 658.775 723.3C658.185 723.978 657.889 724.823 657.889 725.834V731.374H656.325V721.048H657.616L657.795 722.961H657.871C658.254 722.289 658.715 721.771 659.255 721.406C659.796 721.042 660.389 720.86 661.036 720.86ZM667.537 730.272C667.813 730.272 668.08 730.253 668.338 730.215C668.595 730.171 668.799 730.127 668.95 730.083V731.28C668.78 731.362 668.529 731.428 668.196 731.478C667.87 731.534 667.574 731.563 667.311 731.563C665.313 731.563 664.315 730.511 664.315 728.406V722.264H662.836V721.51L664.315 720.86L664.974 718.655H665.879V721.048H668.875V722.264H665.879V728.34C665.879 728.962 666.026 729.44 666.321 729.773C666.617 730.105 667.022 730.272 667.537 730.272Z" fill="white"/>
<defs>
<filter id="filter0_b_1_606" x="-32.4332" y="-33.0767" width="1074.99" height="1090.15" filterUnits="userSpaceOnUse" color-interpolation-filters="sRGB">
<feFlood flood-opacity="0" result="BackgroundImageFix"/>
<feGaussianBlur in="BackgroundImageFix" stdDeviation="16.5384"/>
<feComposite in2="SourceAlpha" operator="in" result="effect1_backgroundBlur_1_606"/>
<feBlend mode="normal" in="SourceGraphic" in2="effect1_backgroundBlur_1_606" result="shape"/>
</filter>
</defs>
</svg>
